<svg width="198" height="81" viewBox="0 0 198 81" fill="none" xmlns="http://www.w3.org/2000/svg">
<path d="M27.6714 0.415119V4.87406H27.4539C26.611 4.87406 26.2576 5.33626 26.0129 6.36943L22.9134 19.4472H17.4213L16.4425 13.0035L15.3277 19.4472H9.67249L6.84487 6.36943C6.62736 5.33626 6.27391 4.87406 5.43106 4.87406H5.21355V0.415119H12.7448V4.87406C12.1467 4.87406 11.766 5.41783 11.9291 6.31506L13.0711 12.3237L14.3761 6.28787C14.5664 5.41783 14.1858 4.87406 13.5877 4.87406V0.415119H20.3848V4.87406C19.7867 4.87406 19.406 5.41783 19.5692 6.28787L20.7111 12.1606L21.9889 6.28787C22.1793 5.41783 21.7986 4.87406 21.2005 4.87406V0.415119H27.6714ZM44.1201 4.87406C43.3044 4.87406 42.9238 5.33626 42.9238 6.34224V13.52C42.9238 14.526 43.3044 14.9882 44.1201 14.9882H44.3104V19.4472H36.6976V14.9882C37.4317 14.9882 37.7579 14.526 37.7579 13.4929V11.6984H34.8216V13.4929C34.8216 14.526 35.1478 14.9882 35.8819 14.9882V19.4472H28.2691V14.9882H28.4594C29.2751 14.9882 29.6557 14.526 29.6557 13.52V6.34224C29.6557 5.33626 29.2751 4.87406 28.4594 4.87406H28.2691V0.415119H35.8819V4.87406C35.1478 4.87406 34.8216 5.33626 34.8216 6.36943V8.10951H37.7579V6.36943C37.7579 5.33626 37.4317 4.87406 36.6976 4.87406V0.415119H44.3104V4.87406H44.1201ZM60.7589 14.9882H60.9764V19.4472H53.0373V14.9882H53.2005C53.9346 14.9882 54.3424 14.6348 54.3152 13.8735H50.9438C50.9166 14.6348 51.3244 14.9882 52.0585 14.9882H52.2217V19.4472H45.0167V14.9882H45.2342C46.077 14.9882 46.4305 14.526 46.6752 13.4929L49.6931 0.415119H56.4087L59.3179 13.4929C59.5626 14.526 59.9161 14.9882 60.7589 14.9882ZM52.8742 4.84687L51.7051 10.2302H53.7442L52.8742 4.84687ZM74.6003 8.78922H71.1201V6.28787C71.1201 5.28189 70.9298 4.81968 70.4676 4.81968C70.1413 4.81968 69.9238 5.17313 69.9238 5.71691V13.4113C69.9238 14.5532 70.3045 14.9882 71.2017 14.9882H71.5008V19.4472H63.181V14.9882H63.4801C64.3773 14.9882 64.758 14.5532 64.758 13.4113V5.71691C64.758 5.17313 64.5405 4.81968 64.2142 4.81968C63.752 4.81968 63.5617 5.28189 63.5617 6.28787V8.78922H60.0815V0.415119H74.6003V8.78922ZM78.5239 0.0888562C80.3184 0.0888562 81.4331 1.36672 81.4331 3.40587C81.4331 6.34224 79.5027 8.62609 76.7838 8.95236V6.72289C77.6539 6.58694 78.1977 6.15192 78.3608 5.47221C78.252 5.4994 78.1433 5.4994 78.0073 5.4994C76.5663 5.4994 75.6147 4.49342 75.6147 2.97085C75.6147 1.28516 76.811 0.0888562 78.5239 0.0888562ZM89.964 19.7734C87.6801 19.7734 87.517 18.7946 86.7557 18.7946C86.3751 18.7946 86.0488 19.0665 86.0216 19.4472H82.7862V12.2422H86.9732C87.0004 13.9823 87.5986 15.0426 88.6861 15.0426C89.393 15.0426 89.8824 14.5804 89.8824 13.9007C89.8824 11.209 82.5415 12.5141 82.5415 5.82566C82.5415 2.26395 84.6078 0.0888562 87.8433 0.0888562C89.9912 0.0888562 90.263 1.06765 91.0243 1.06765C91.405 1.06765 91.704 0.79576 91.704 0.415119H94.9667V7.34822H90.7796C90.7796 5.79847 90.1815 4.7653 89.1483 4.7653C88.4686 4.7653 88.0064 5.20032 88.0064 5.85285C88.0064 8.68047 95.6736 7.10353 95.6736 13.8735C95.6736 17.544 93.4441 19.7734 89.964 19.7734ZM119.291 0.415119V4.87406H119.1C118.285 4.87406 117.904 5.33626 117.904 6.34224V19.4472H111.379L107.735 8.46296V13.52C107.735 14.526 108.116 14.9882 108.932 14.9882H109.122V19.4472H102.162V14.9882H102.352C103.168 14.9882 103.548 14.526 103.548 13.52V6.34224C103.548 5.33626 103.168 4.87406 102.352 4.87406H102.162V0.415119H110.291L113.717 11.0731V6.34224C113.717 5.33626 113.336 4.87406 112.521 4.87406H112.33V0.415119H119.291ZM127.804 4.87406C127.069 4.87406 126.716 5.33626 126.716 6.26068V8.08232H128.864V11.7256H126.716V13.6016C126.716 14.526 127.069 14.9882 127.804 14.9882C129.081 14.9882 129.816 13.6016 129.816 11.1818H134.111V19.4472H120.164V14.9882H120.354C121.17 14.9882 121.55 14.526 121.55 13.52V6.34224C121.55 5.33626 121.17 4.87406 120.354 4.87406H120.164V0.415119H134.111V8.54453H129.816C129.816 6.23349 129.081 4.87406 127.804 4.87406ZM157.322 0.415119V4.87406H157.104C156.262 4.87406 155.908 5.33626 155.663 6.36943L152.564 19.4472H147.072L146.093 13.0035L144.978 19.4472H139.323L136.495 6.36943C136.278 5.33626 135.924 4.87406 135.082 4.87406H134.864V0.415119H142.395V4.87406C141.797 4.87406 141.417 5.41783 141.58 6.31506L142.722 12.3237L144.027 6.28787C144.217 5.41783 143.836 4.87406 143.238 4.87406V0.415119H150.035V4.87406C149.437 4.87406 149.057 5.41783 149.22 6.28787L150.362 12.1606L151.64 6.28787C151.83 5.41783 151.449 4.87406 150.851 4.87406V0.415119H157.322ZM178.833 14.9882H179.051V19.4472H171.111V14.9882H171.275C172.009 14.9882 172.417 14.6348 172.389 13.8735H169.018C168.991 14.6348 169.399 14.9882 170.133 14.9882H170.296V19.4472H163.091V14.9882H163.308C164.151 14.9882 164.505 14.526 164.749 13.4929L167.767 0.415119H174.483L177.392 13.4929C177.637 14.526 177.99 14.9882 178.833 14.9882ZM170.948 4.84687L169.779 10.2302H171.818L170.948 4.84687ZM192.674 8.78922H189.194V6.28787C189.194 5.28189 189.004 4.81968 188.542 4.81968C188.215 4.81968 187.998 5.17313 187.998 5.71691V13.4113C187.998 14.5532 188.379 14.9882 189.276 14.9882H189.575V19.4472H181.255V14.9882H181.554C182.451 14.9882 182.832 14.5532 182.832 13.4113V5.71691C182.832 5.17313 182.615 4.81968 182.288 4.81968C181.826 4.81968 181.636 5.28189 181.636 6.28787V8.78922H178.156V0.415119H192.674V8.78922Z" fill="#22235B"/>
<path d="M24.4507 73.1815C22.2816 75.3513 19.349 76.5094 15.7519 76.5094C6.52453 76.5094 0.573151 68.7562 0.573151 56.5259C0.573151 49.3171 2.4933 43.6445 5.82939 40.3073C7.97642 38.1595 10.7099 36.9791 13.8955 36.9791C17.9359 36.9791 18.2089 38.9447 20.0653 38.9447C20.4676 38.9447 20.7909 38.8129 21.0157 38.5882C21.2485 38.3555 21.3757 38.0232 21.3757 37.6343H28.8013V54.3419H19.4647C19.4101 49.2641 18.0997 46.4795 15.8611 46.4795C15.1784 46.4795 14.5844 46.7337 14.0814 47.2365C12.7339 48.5836 12.0391 51.7152 12.0391 56.5259C12.0391 63.4054 13.3495 67.009 15.7519 67.009C16.4142 67.009 16.999 66.7495 17.4972 66.2514C18.7242 65.0248 19.4259 62.3516 19.4647 58.5461H28.8013C29.0241 65.1356 27.4837 70.1475 24.4507 73.1815Z" fill="#22235B"/>
<path d="M65.2074 46.5887C64.468 46.5887 63.9066 46.7778 63.5132 47.1711C63.035 47.6492 62.805 48.4288 62.805 49.5371V63.9514C62.805 65.9716 63.5694 66.8998 65.2074 66.8998H65.5896V75.8542H50.3016V66.8998C50.9194 66.8998 51.3933 66.7369 51.7355 66.3948C52.2099 65.9206 52.431 65.1022 52.431 63.8968V60.2933H46.5342V63.8968C46.5342 65.9716 47.1894 66.8998 48.6636 66.8998V75.8542H33.3757V66.8998H33.7579C34.4973 66.8998 35.0586 66.7107 35.4521 66.3174C35.9302 65.8394 36.1603 65.0597 36.1603 63.9514V49.5371C36.1603 47.5169 35.3959 46.5887 33.7579 46.5887H33.3757V37.6343H48.6636V46.5887C48.0459 46.5887 47.572 46.7517 47.2298 47.0937C46.7554 47.5679 46.5342 48.3863 46.5342 49.5917V53.0861H52.431V49.5917C52.431 47.5169 51.7758 46.5887 50.3016 46.5887V37.6343H65.5896V46.5887H65.2074Z" fill="#22235B"/>
<path d="M72.5225 49.5371C72.5225 47.5169 71.7581 46.5887 70.1201 46.5887H69.7379V37.6343H85.681V46.5887H85.2988C84.5594 46.5887 83.9981 46.7778 83.6046 47.1711C83.1265 47.6492 82.8964 48.4288 82.8964 49.5371V63.9514C82.8964 65.9716 83.6608 66.8998 85.2988 66.8998H85.681V75.8542H69.7379V66.8998H70.1201C70.8594 66.8998 71.4208 66.7107 71.8142 66.3174C72.2924 65.8394 72.5225 65.0597 72.5225 63.9514V49.5371Z" fill="#22235B"/>
<path d="M107.088 66.056C108.369 64.7756 109.111 62.0652 109.111 58.1093H117.52V75.8542H89.8374V66.8998H90.2196C90.959 66.8998 91.5204 66.7107 91.9138 66.3174C92.392 65.8394 92.622 65.0597 92.622 63.9514V49.5371C92.622 47.5169 91.8576 46.5887 90.2196 46.5887H89.8374V37.6343H106.163V46.5887H105.562C104.74 46.5887 104.133 46.7707 103.717 47.1867C103.222 47.682 102.996 48.509 102.996 49.7555V64.006C102.996 65.917 103.706 66.8998 105.125 66.8998C105.871 66.8998 106.531 66.6135 107.088 66.056Z" fill="#22235B"/>
<path d="M124.879 49.5371C124.879 47.5169 124.114 46.5887 122.476 46.5887H122.094V37.6343H138.037V46.5887H137.655C136.916 46.5887 136.354 46.7778 135.961 47.1711C135.483 47.6492 135.253 48.4288 135.253 49.5371V63.9514C135.253 65.9716 136.017 66.8998 137.655 66.8998H138.037V75.8542H122.094V66.8998H122.476C123.216 66.8998 123.777 66.7107 124.17 66.3174C124.649 65.8394 124.879 65.0597 124.879 63.9514V49.5371Z" fill="#22235B"/>
<path d="M144.194 38.6166C145.225 37.5849 146.691 36.9791 148.418 36.9791C152.021 36.9791 154.26 39.5453 154.26 43.6403C154.26 46.9333 153.051 49.8177 151.033 51.837C149.437 53.4336 147.334 54.4894 144.924 54.7787V50.3015C145.949 50.1413 146.748 49.7743 147.3 49.2226C147.689 48.8341 147.955 48.354 148.09 47.7899C147.872 47.8445 147.654 47.8445 147.38 47.8445C144.487 47.8445 142.576 45.8243 142.576 42.7667C142.576 41.0813 143.171 39.6396 144.194 38.6166Z" fill="#22235B"/>
<path d="M181.851 73.4292C179.861 75.4193 177.024 76.5094 173.576 76.5094C168.989 76.5094 168.662 74.5438 167.133 74.5438C166.716 74.5438 166.331 74.7065 166.059 74.9787C165.832 75.205 165.683 75.5071 165.659 75.8542H159.161V61.3853H167.57C167.624 64.8796 168.825 67.009 171.009 67.009C171.74 67.009 172.355 66.7632 172.78 66.3386C173.18 65.9381 173.412 65.3784 173.412 64.7158C173.412 59.3105 158.67 61.9313 158.67 48.4997C158.67 44.7811 159.791 41.8151 161.781 39.8244C163.619 37.986 166.197 36.9791 169.317 36.9791C173.63 36.9791 174.176 38.9447 175.705 38.9447C176.101 38.9447 176.453 38.7984 176.7 38.5512C176.93 38.3209 177.07 38.003 177.07 37.6343H183.622V51.5573H175.214C175.214 48.4451 174.012 46.3703 171.938 46.3703C171.234 46.3703 170.647 46.6022 170.243 47.0062C169.863 47.3864 169.644 47.919 169.644 48.5543C169.644 54.2327 185.042 51.0659 185.042 64.6612C185.042 68.395 183.893 71.3863 181.851 73.4292Z" fill="#22235B"/>
<path d="M194.284 26.9714H187.732L177.07 37.6338H183.622L194.284 26.9714Z" fill="#22235B"/>
<path d="M194.284 40.8943V26.9714L183.622 37.6338V51.5567L194.284 40.8943Z" fill="#22235B"/>
<path d="M187.733 26.9714C187.733 27.34 187.593 27.6579 187.362 27.8882L176.7 38.5503C176.931 38.32 177.07 38.0023 177.07 37.6338L187.733 26.9714Z" fill="#22235B"/>
<path d="M187.362 27.8885C187.115 28.1357 186.763 28.2821 186.367 28.2821L175.705 38.9445C176.101 38.9445 176.453 38.7981 176.7 38.5509L187.362 27.8885Z" fill="#22235B"/>
<path d="M186.367 28.282C184.839 28.282 184.293 26.3164 179.979 26.3164L169.317 36.9788C173.63 36.9788 174.176 38.9444 175.705 38.9444L186.367 28.282Z" fill="#22235B"/>
<path d="M185.876 40.8949H194.284L183.622 51.5573H175.214L185.876 40.8949Z" fill="#22235B"/>
<path d="M179.979 26.3164C176.86 26.3164 174.282 27.3232 172.444 29.1616L161.784 39.8215C163.621 37.9847 166.199 36.9788 169.317 36.9788L179.979 26.3164Z" fill="#22235B"/>
<path d="M182.6 35.7078C184.675 35.7078 185.876 37.7826 185.876 40.8948L175.214 51.5572C175.214 48.445 174.012 46.3702 171.938 46.3702L182.6 35.7078Z" fill="#22235B"/>
<path d="M180.905 36.3437C181.309 35.9397 181.897 35.7078 182.6 35.7078L171.938 46.3702C171.234 46.3702 170.647 46.6021 170.243 47.0061L180.905 36.3437Z" fill="#22235B"/>
<path d="M180.307 37.8918C180.307 37.2568 180.525 36.7243 180.905 36.3442L170.243 47.006C169.863 47.3862 169.644 47.9189 169.644 48.5542L180.307 37.8918Z" fill="#22235B"/>
<path d="M195.704 53.9987C195.704 40.4033 180.307 43.5701 180.307 37.8917L169.644 48.5541C169.644 54.2325 185.042 51.0657 185.042 64.6611L195.704 53.9987Z" fill="#22235B"/>
<path d="M172.444 29.1618C170.454 31.1526 169.332 34.1185 169.332 37.8371L158.67 48.4995C158.67 44.7809 159.791 41.815 161.781 39.8242L172.444 29.1618Z" fill="#22235B"/>
<path d="M192.513 62.7665C194.555 60.7236 195.704 57.7324 195.704 53.9986L185.042 64.661C185.042 68.3948 183.893 71.386 181.851 73.4289L192.513 62.7665Z" fill="#22235B"/>
<path d="M164.923 32.9776C164.923 28.8826 162.684 26.3164 159.08 26.3164L148.418 36.9788C152.022 36.9788 154.26 39.545 154.26 43.64L164.923 32.9776Z" fill="#22235B"/>
<path d="M169.332 37.837C169.332 51.2686 184.074 48.6478 184.074 54.0531L173.412 64.7156C173.412 59.3102 158.67 61.931 158.67 48.4994L169.332 37.837Z" fill="#22235B"/>
<path d="M159.08 26.3164C157.353 26.3164 155.887 26.9221 154.856 27.9539L144.195 38.6146C145.227 37.5839 146.692 36.9788 148.418 36.9788L159.08 26.3164Z" fill="#22235B"/>
<path d="M184.074 54.0527C184.074 54.7153 183.843 55.2749 183.442 55.6754L172.78 66.3373C173.18 65.9368 173.412 65.3774 173.412 64.7151L184.074 54.0527Z" fill="#22235B"/>
<path d="M183.442 55.6758C183.017 56.1004 182.402 56.3462 181.672 56.3462L171.009 67.0086C171.74 67.0086 172.355 66.7628 172.78 66.3382L183.442 55.6758Z" fill="#22235B"/>
<path d="M181.672 56.3463C179.488 56.3463 178.287 54.2169 178.232 50.7225L167.57 61.3849C167.624 64.8793 168.825 67.0087 171.009 67.0087L181.672 56.3463Z" fill="#22235B"/>
<path d="M161.695 41.1742C163.714 39.1549 164.922 36.2706 164.922 32.9776L154.26 43.64C154.26 46.933 153.051 49.8173 151.033 51.8366L161.695 41.1742Z" fill="#22235B"/>
<path d="M184.238 65.8468C187.685 65.8468 190.521 64.7575 192.511 62.769L181.851 73.4289C179.861 75.419 177.024 76.5092 173.576 76.5092L184.238 65.8468Z" fill="#22235B"/>
<path d="M154.856 27.9536C153.834 28.9765 153.238 30.4183 153.238 32.1037L142.576 42.7661C142.576 41.0807 143.171 39.6389 144.194 38.616L154.856 27.9536Z" fill="#22235B"/>
<path d="M178.232 50.7225H169.824L159.161 61.3849H167.57L178.232 50.7225Z" fill="#22235B"/>
<path d="M158.043 37.1819C158.316 37.1819 158.534 37.1819 158.753 37.1273L148.09 47.7897C147.872 47.8443 147.654 47.8443 147.381 47.8443L158.043 37.1819Z" fill="#22235B"/>
<path d="M153.238 32.1038C153.238 35.1613 155.149 37.1815 158.043 37.1815L147.381 47.8439C144.487 47.8439 142.576 45.8237 142.576 42.7662L153.238 32.1038Z" fill="#22235B"/>
<path d="M158.753 37.1273C158.617 37.6913 158.351 38.1715 157.963 38.56L147.301 49.2214C147.69 48.833 147.955 48.3532 148.09 47.7897L158.753 37.1273Z" fill="#22235B"/>
<path d="M157.963 38.5596C157.411 39.1113 156.611 39.4783 155.586 39.6385L144.924 50.3009C145.949 50.1407 146.748 49.7737 147.3 49.222L157.963 38.5596Z" fill="#22235B"/>
<path d="M148.7 35.9258V26.9714L138.037 37.6338V46.5882L148.7 35.9258Z" fill="#22235B"/>
<path d="M177.795 63.8814C179.324 63.8814 179.652 65.847 184.238 65.847L173.576 76.5094C168.989 76.5094 168.662 74.5438 167.133 74.5438L177.795 63.8814Z" fill="#22235B"/>
<path d="M155.586 44.1161C157.995 43.827 160.097 42.7722 161.692 41.1771L151.033 51.8368C149.437 53.4334 147.334 54.4892 144.924 54.7785L155.586 44.1161Z" fill="#22235B"/>
<path d="M148.7 26.9714H132.756L122.094 37.6338H138.037L148.7 26.9714Z" fill="#22235B"/>
<path d="M155.586 39.6389V44.1161L144.924 54.7785V50.3013L155.586 39.6389Z" fill="#22235B"/>
<path d="M176.721 64.3162C176.993 64.0441 177.378 63.8814 177.795 63.8814L167.133 74.5438C166.716 74.5438 166.331 74.7065 166.059 74.9786L176.721 64.3162Z" fill="#22235B"/>
<path d="M148.317 35.9261H148.699L138.037 46.5885H137.655L148.317 35.9261Z" fill="#22235B"/>
<path d="M169.824 50.7225V65.1914L159.161 75.8538V61.3849L169.824 50.7225Z" fill="#22235B"/>
<path d="M176.321 65.1915C176.346 64.8446 176.494 64.5427 176.721 64.3164L166.059 74.9783C165.832 75.2047 165.683 75.5068 165.659 75.8539L176.321 65.1915Z" fill="#22235B"/>
<path d="M146.623 36.5086C147.017 36.1153 147.578 35.9261 148.317 35.9261L137.655 46.5885C136.916 46.5885 136.354 46.7777 135.961 47.171L146.623 36.5086Z" fill="#22235B"/>
<path d="M145.915 38.8743C145.915 37.7663 146.145 36.9868 146.623 36.5087L135.961 47.1707C135.483 47.6488 135.253 48.4284 135.253 49.5367L145.915 38.8743Z" fill="#22235B"/>
<path d="M169.824 65.1914H176.321L165.659 75.8538H159.161L169.824 65.1914Z" fill="#22235B"/>
<path d="M132.756 26.9714V35.9258L122.094 46.5882V37.6338L132.756 26.9714Z" fill="#22235B"/>
<path d="M145.915 53.2889V38.8746L135.253 49.537V63.9513L145.915 53.2889Z" fill="#22235B"/>
<path d="M132.756 35.9261H133.139L122.476 46.5885H122.094L132.756 35.9261Z" fill="#22235B"/>
<path d="M133.139 35.9261C134.777 35.9261 135.541 36.8543 135.541 38.8745L124.879 49.5369C124.879 47.5167 124.114 46.5885 122.476 46.5885L133.139 35.9261Z" fill="#22235B"/>
<path d="M148.317 56.2372C146.679 56.2372 145.915 55.309 145.915 53.2888L135.253 63.9512C135.253 65.9714 136.017 66.8996 137.655 66.8996L148.317 56.2372Z" fill="#22235B"/>
<path d="M148.699 56.2373H148.317L137.655 66.8997H138.037L148.699 56.2373Z" fill="#22235B"/>
<path d="M135.541 38.8746V53.2889L124.879 63.9513V49.537L135.541 38.8746Z" fill="#22235B"/>
<path d="M148.7 65.1916V56.2373L138.037 66.8997V75.854L148.7 65.1916Z" fill="#22235B"/>
<path d="M116.825 35.9258V26.9714L106.163 37.6338V46.5882L116.825 35.9258Z" fill="#22235B"/>
<path d="M116.825 26.9714H100.5L89.8376 37.6338H106.163L116.825 26.9714Z" fill="#22235B"/>
<path d="M135.541 53.2888C135.541 54.3971 135.311 55.1768 134.833 55.6548L124.171 66.3168C124.649 65.8388 124.879 65.0593 124.879 63.9512L135.541 53.2888Z" fill="#22235B"/>
<path d="M116.225 35.9261H116.825L106.163 46.5885H105.562L116.225 35.9261Z" fill="#22235B"/>
<path d="M114.38 36.5241C114.796 36.1081 115.402 35.9261 116.225 35.9261L105.562 46.5885C104.74 46.5885 104.133 46.7705 103.717 47.1865L114.38 36.5241Z" fill="#22235B"/>
<path d="M134.833 55.6544C134.439 56.0477 133.878 56.2368 133.139 56.2368L122.476 66.8992C123.215 66.8992 123.777 66.7101 124.17 66.3168L134.833 55.6544Z" fill="#22235B"/>
<path d="M133.139 56.2373H132.756L122.094 66.8997H122.476L133.139 56.2373Z" fill="#22235B"/>
<path d="M128.182 47.4467H119.774L109.111 58.1091H117.52L128.182 47.4467Z" fill="#22235B"/>
<path d="M113.658 39.0926C113.658 37.8466 113.884 37.0197 114.379 36.5243L103.717 47.1862C103.222 47.6815 102.996 48.5086 102.996 49.755L113.658 39.0926Z" fill="#22235B"/>
<path d="M132.756 65.1914H148.7L138.037 75.8538H122.094L132.756 65.1914Z" fill="#22235B"/>
<path d="M132.756 56.2373V65.1916L122.094 75.854V66.8997L132.756 56.2373Z" fill="#22235B"/>
<path d="M128.182 65.1917V47.4467L117.52 58.1091V75.8541L128.182 65.1917Z" fill="#22235B"/>
<path d="M100.5 26.9714V35.9258L89.8376 46.5882V37.6338L100.5 26.9714Z" fill="#22235B"/>
<path d="M113.658 53.3434V39.0929L102.996 49.7553V64.0058L113.658 53.3434Z" fill="#22235B"/>
<path d="M119.773 47.4467C119.773 51.4026 119.031 54.1131 117.751 55.3934L107.089 66.0548C108.369 64.7741 109.111 62.064 109.111 58.1091L119.773 47.4467Z" fill="#22235B"/>
<path d="M96.3435 35.9258V26.9714L85.6811 37.6338V46.5882L96.3435 35.9258Z" fill="#22235B"/>
<path d="M100.5 35.9261H100.882L90.2198 46.5885H89.8376L100.5 35.9261Z" fill="#22235B"/>
<path d="M100.882 35.9261C102.52 35.9261 103.284 36.8543 103.284 38.8745L92.622 49.5369C92.622 47.5167 91.8576 46.5885 90.2196 46.5885L100.882 35.9261Z" fill="#22235B"/>
<path d="M96.3435 26.9714H80.4004L69.738 37.6338H85.6811L96.3435 26.9714Z" fill="#22235B"/>
<path d="M117.751 55.3936C117.193 55.9511 116.533 56.2374 115.788 56.2374L105.125 66.8998C105.871 66.8998 106.531 66.6135 107.088 66.056L117.751 55.3936Z" fill="#22235B"/>
<path d="M95.9613 35.9261H96.3435L85.6811 46.5885H85.2989L95.9613 35.9261Z" fill="#22235B"/>
<path d="M115.788 56.2367C114.368 56.2367 113.658 55.2539 113.658 53.3429L102.996 64.0053C102.996 65.9163 103.706 66.8991 105.125 66.8991L115.788 56.2367Z" fill="#22235B"/>
<path d="M94.2671 36.5086C94.6605 36.1153 95.2219 35.9261 95.9613 35.9261L85.2989 46.5885C84.5595 46.5885 83.9981 46.7777 83.6047 47.171L94.2671 36.5086Z" fill="#22235B"/>
<path d="M103.284 38.8746V53.2889L92.6221 63.9513V49.537L103.284 38.8746Z" fill="#22235B"/>
<path d="M93.5589 38.8743C93.5589 37.7663 93.7888 36.9868 94.2667 36.5087L83.6047 47.1707C83.1265 47.6488 82.8965 48.4284 82.8965 49.5367L93.5589 38.8743Z" fill="#22235B"/>
<path d="M100.5 65.1914H128.182L117.52 75.8538H89.8376L100.5 65.1914Z" fill="#22235B"/>
<path d="M80.4004 26.9714V35.9258L69.738 46.5882V37.6338L80.4004 26.9714Z" fill="#22235B"/>
<path d="M103.284 53.2888C103.284 54.3971 103.054 55.1768 102.576 55.6548L91.9141 66.3168C92.3921 65.8388 92.622 65.0593 92.622 63.9512L103.284 53.2888Z" fill="#22235B"/>
<path d="M93.559 53.2889V38.8746L82.8966 49.537V63.9513L93.559 53.2889Z" fill="#22235B"/>
<path d="M102.576 55.6544C102.183 56.0477 101.621 56.2368 100.882 56.2368L90.2196 66.8992C90.959 66.8992 91.5204 66.7101 91.9138 66.3168L102.576 55.6544Z" fill="#22235B"/>
<path d="M76.2518 35.9258V26.9714L65.5894 37.6338V46.5882L76.2518 35.9258Z" fill="#22235B"/>
<path d="M80.4004 35.9261H80.7826L70.1202 46.5885H69.738L80.4004 35.9261Z" fill="#22235B"/>
<path d="M80.7825 35.9261C82.4205 35.9261 83.1849 36.8543 83.1849 38.8745L72.5225 49.5369C72.5225 47.5167 71.7581 46.5885 70.1201 46.5885L80.7825 35.9261Z" fill="#22235B"/>
<path d="M100.882 56.2373H100.5L89.8376 66.8997H90.2198L100.882 56.2373Z" fill="#22235B"/>
<path d="M76.252 26.9714H60.9641L50.3017 37.6338H65.5896L76.252 26.9714Z" fill="#22235B"/>
<path d="M75.8697 35.9261H76.2519L65.5895 46.5885H65.2073L75.8697 35.9261Z" fill="#22235B"/>
<path d="M95.9614 56.2372C94.3234 56.2372 93.559 55.309 93.559 53.2888L82.8966 63.9512C82.8966 65.9714 83.661 66.8996 85.299 66.8996L95.9614 56.2372Z" fill="#22235B"/>
<path d="M96.3435 56.2373H95.9613L85.2989 66.8997H85.6811L96.3435 56.2373Z" fill="#22235B"/>
<path d="M100.5 56.2373V65.1916L89.8376 75.854V66.8997L100.5 56.2373Z" fill="#22235B"/>
<path d="M74.1756 36.5086C74.569 36.1153 75.1304 35.9261 75.8698 35.9261L65.2073 46.5885C64.468 46.5885 63.9066 46.7777 63.5132 47.171L74.1756 36.5086Z" fill="#22235B"/>
<path d="M83.1848 38.8746V53.2889L72.5224 63.9513V49.537L83.1848 38.8746Z" fill="#22235B"/>
<path d="M73.4673 38.8743C73.4673 37.7663 73.6972 36.9868 74.1752 36.5087L63.5131 47.1707C63.035 47.6488 62.8049 48.4284 62.8049 49.5367L73.4673 38.8743Z" fill="#22235B"/>
<path d="M96.3435 65.1916V56.2373L85.6811 66.8997V75.854L96.3435 65.1916Z" fill="#22235B"/>
<path d="M60.9641 26.9714V35.9258L50.3017 46.5882V37.6338L60.9641 26.9714Z" fill="#22235B"/>
<path d="M83.1849 53.2888C83.1849 54.3971 82.9548 55.1768 82.4766 55.6548L71.8146 66.3168C72.2925 65.8388 72.5225 65.0593 72.5225 63.9512L83.1849 53.2888Z" fill="#22235B"/>
<path d="M59.3261 35.9258V26.9714L48.6637 37.6338V46.5882L59.3261 35.9258Z" fill="#22235B"/>
<path d="M73.4673 53.2889V38.8746L62.8049 49.537V63.9513L73.4673 53.2889Z" fill="#22235B"/>
<path d="M82.4767 55.6544C82.0832 56.0477 81.5219 56.2368 80.7825 56.2368L70.1201 66.8992C70.8595 66.8992 71.4208 66.7101 71.8143 66.3168L82.4767 55.6544Z" fill="#22235B"/>
<path d="M59.326 26.9714H44.038L33.3756 37.6338H48.6636L59.326 26.9714Z" fill="#22235B"/>
<path d="M60.9641 35.9261C62.4383 35.9261 63.0935 36.8543 63.0935 38.9291L52.4311 49.5915C52.4311 47.5167 51.7759 46.5885 50.3017 46.5885L60.9641 35.9261Z" fill="#22235B"/>
<path d="M80.7826 56.2373H80.4004L69.738 66.8997H70.1202L80.7826 56.2373Z" fill="#22235B"/>
<path d="M80.4004 65.1914H96.3435L85.6811 75.8538H69.738L80.4004 65.1914Z" fill="#22235B"/>
<path d="M57.8921 36.4312C58.2343 36.0891 58.7082 35.9261 59.326 35.9261L48.6636 46.5885C48.0458 46.5885 47.5719 46.7515 47.2297 47.0936L57.8921 36.4312Z" fill="#22235B"/>
<path d="M63.0934 38.9286V42.423L52.431 53.0854V49.5911L63.0934 38.9286Z" fill="#22235B"/>
<path d="M75.8697 56.2372C74.2317 56.2372 73.4673 55.309 73.4673 53.2888L62.8049 63.9512C62.8049 65.9714 63.5693 66.8996 65.2073 66.8996L75.8697 56.2372Z" fill="#22235B"/>
<path d="M57.1966 38.9289C57.1966 37.7239 57.4176 36.9056 57.8917 36.4314L47.2297 47.0933C46.7553 47.5675 46.5342 48.3859 46.5342 49.5913L57.1966 38.9289Z" fill="#22235B"/>
<path d="M76.2519 56.2373H75.8697L65.2073 66.8997H65.5895L76.2519 56.2373Z" fill="#22235B"/>
<path d="M80.4004 56.2373V65.1916L69.738 75.854V66.8997L80.4004 56.2373Z" fill="#22235B"/>
<path d="M63.0934 42.4232H57.1966L46.5342 53.0856H52.431L63.0934 42.4232Z" fill="#22235B"/>
<path d="M57.1966 42.423V38.9286L46.5342 49.5911V53.0854L57.1966 42.423Z" fill="#22235B"/>
<path d="M76.2518 65.1916V56.2373L65.5894 66.8997V75.854L76.2518 65.1916Z" fill="#22235B"/>
<path d="M44.038 26.9714V35.9258L33.3756 46.5882V37.6338L44.038 26.9714Z" fill="#22235B"/>
<path d="M63.0934 49.6305V53.2341L52.431 63.8965V60.2929L63.0934 49.6305Z" fill="#22235B"/>
<path d="M57.1966 49.6305H63.0934L52.431 60.2929H46.5342L57.1966 49.6305Z" fill="#22235B"/>
<path d="M39.4636 26.9714H32.0381L21.3757 37.6338H28.8012L39.4636 26.9714Z" fill="#22235B"/>
<path d="M44.038 35.9261H44.4202L33.7578 46.5885H33.3756L44.038 35.9261Z" fill="#22235B"/>
<path d="M63.0935 53.2341C63.0935 54.4395 62.8723 55.2579 62.3979 55.7321L51.736 66.394C52.2101 65.9197 52.4311 65.1015 52.4311 63.8965L63.0935 53.2341Z" fill="#22235B"/>
<path d="M44.4204 35.9261C46.0584 35.9261 46.8228 36.8543 46.8228 38.8745L36.1604 49.5369C36.1604 47.5167 35.396 46.5885 33.758 46.5885L44.4204 35.9261Z" fill="#22235B"/>
<path d="M57.1966 53.2341V49.6305L46.5342 60.2929V63.8965L57.1966 53.2341Z" fill="#22235B"/>
<path d="M62.3979 55.7317C62.0557 56.0737 61.5818 56.2367 60.9641 56.2367L50.3017 66.8991C50.9194 66.8991 51.3933 66.7361 51.7355 66.3941L62.3979 55.7317Z" fill="#22235B"/>
<path d="M32.0382 26.9714C32.0382 27.3602 31.911 27.6926 31.6782 27.9253L21.0161 38.5874C21.2487 38.3547 21.3758 38.0225 21.3758 37.6338L32.0382 26.9714Z" fill="#22235B"/>
<path d="M39.4637 43.6789V26.9714L28.8013 37.6338V54.3413L39.4637 43.6789Z" fill="#22235B"/>
<path d="M59.326 56.2371C57.8518 56.2371 57.1966 55.3089 57.1966 53.2341L46.5342 63.8965C46.5342 65.9713 47.1894 66.8995 48.6636 66.8995L59.326 56.2371Z" fill="#22235B"/>
<path d="M60.9641 65.1914H76.252L65.5896 75.8538H50.3017L60.9641 65.1914Z" fill="#22235B"/>
<path d="M31.6782 27.9252C31.4534 28.1499 31.1301 28.2817 30.7278 28.2817L20.0654 38.9441C20.4677 38.9441 20.791 38.8123 21.0158 38.5876L31.6782 27.9252Z" fill="#22235B"/>
<path d="M46.8227 38.8746V53.2889L36.1603 63.9513V49.537L46.8227 38.8746Z" fill="#22235B"/>
<path d="M30.7278 28.282C28.8714 28.282 28.5984 26.3164 24.558 26.3164L13.8956 36.9788C17.936 36.9788 18.209 38.9444 20.0654 38.9444L30.7278 28.282Z" fill="#22235B"/>
<path d="M60.9641 56.2373V65.1916L50.3017 75.854V66.8997L60.9641 56.2373Z" fill="#22235B"/>
<path d="M59.3261 65.1916V56.2373L48.6637 66.8997V75.854L59.3261 65.1916Z" fill="#22235B"/>
<path d="M24.558 26.3164C21.3724 26.3164 18.6389 27.4968 16.4919 29.6445L5.83242 40.304C7.97901 38.1581 10.7115 36.9788 13.8956 36.9788L24.558 26.3164Z" fill="#22235B"/>
<path d="M46.8228 53.2888C46.8228 54.3971 46.5927 55.1768 46.1146 55.6548L35.4525 66.3168C35.9304 65.8388 36.1604 65.0593 36.1604 63.9512L46.8228 53.2888Z" fill="#22235B"/>
<path d="M30.127 43.6791H39.4635L28.8011 54.3415H19.4646L30.127 43.6791Z" fill="#22235B"/>
<path d="M24.7437 36.5737C25.2467 36.0708 25.8407 35.8167 26.5234 35.8167L15.861 46.4791C15.1783 46.4791 14.5843 46.7332 14.0813 47.2361L24.7437 36.5737Z" fill="#22235B"/>
<path d="M46.1146 55.6544C45.7211 56.0477 45.1598 56.2368 44.4204 56.2368L33.758 66.8992C34.4974 66.8992 35.0587 66.7101 35.4522 66.3168L46.1146 55.6544Z" fill="#22235B"/>
<path d="M26.5233 35.8167C28.7619 35.8167 30.0723 38.6012 30.1269 43.679L19.4645 54.3414C19.4099 49.2636 18.0995 46.4791 15.8609 46.4791L26.5233 35.8167Z" fill="#22235B"/>
<path d="M44.4202 56.2373H44.038L33.3756 66.8997H33.7578L44.4202 56.2373Z" fill="#22235B"/>
<path d="M39.4636 47.8834H30.1271L19.4647 58.5458H28.8012L39.4636 47.8834Z" fill="#22235B"/>
<path d="M44.038 65.1914H59.326L48.6636 75.8538H33.3756L44.038 65.1914Z" fill="#22235B"/>
<path d="M44.038 56.2373V65.1916L33.3756 75.854V66.8997L44.038 56.2373Z" fill="#22235B"/>
<path d="M22.7014 45.8634C22.7014 41.0535 23.396 37.9221 24.743 36.5747L14.0813 47.2364C12.7338 48.5835 12.039 51.7151 12.039 56.5258L22.7014 45.8634Z" fill="#22235B"/>
<path d="M35.1132 62.5188C38.1462 59.4848 39.6866 54.4729 39.4638 47.8834L28.8014 58.5458C29.0242 65.1353 27.4838 70.1473 24.4508 73.1812L35.1132 62.5188Z" fill="#22235B"/>
<path d="M30.127 47.8834C30.0881 51.6889 29.3865 54.3621 28.1595 55.5887L17.4978 66.2505C18.7243 65.0235 19.4257 62.3506 19.4646 58.5458L30.127 47.8834Z" fill="#22235B"/>
<path d="M16.4918 29.6446C13.1557 32.9818 11.2356 38.6545 11.2356 45.8632L0.573151 56.5256C0.573151 49.3169 2.4933 43.6442 5.82939 40.307L16.4918 29.6446Z" fill="#22235B"/>
<path d="M26.4142 56.3464C24.0118 56.3464 22.7014 52.7428 22.7014 45.8632L12.039 56.5256C12.039 63.4052 13.3494 67.0088 15.7518 67.0088L26.4142 56.3464Z" fill="#22235B"/>
<path d="M28.1597 55.5885C27.6614 56.0866 27.0766 56.3462 26.4143 56.3462L15.7519 67.0086C16.4142 67.0086 16.999 66.749 17.4972 66.2509L28.1597 55.5885Z" fill="#22235B"/>
<path d="M26.4143 65.8465C30.0101 65.8465 32.9418 64.6893 35.1107 62.521L24.4507 73.181C22.2816 75.3508 19.349 76.5089 15.7519 76.5089L26.4143 65.8465Z" fill="#22235B"/>
<path d="M11.2356 45.8632C11.2356 58.0936 17.1869 65.8467 26.4143 65.8467L15.7519 76.5091C6.52453 76.5091 0.573151 68.756 0.573151 56.5256L11.2356 45.8632Z" fill="#22235B"/>
<path d="M26.4142 66.2433C17.1869 66.2433 11.2355 58.4901 11.2355 46.2597C11.2355 34.4116 16.4225 26.713 24.5578 26.713C28.5982 26.713 28.8712 28.6786 30.7276 28.6786C31.5466 28.6786 32.038 28.1326 32.038 27.3682H39.4636V44.0757H30.127C30.0724 38.998 28.762 36.2134 26.5234 36.2134C24.0118 36.2134 22.7014 39.6532 22.7014 46.2597C22.7014 53.1393 24.0118 56.7429 26.4142 56.7429C28.7074 56.7429 30.0724 53.6307 30.127 48.2799H39.4636C39.8458 59.5821 35.041 66.2433 26.4142 66.2433ZM75.8697 36.3226C74.2317 36.3226 73.4673 37.2508 73.4673 39.271V53.6853C73.4673 55.7055 74.2317 56.6337 75.8697 56.6337H76.2519V65.5881H60.964V56.6337C62.4381 56.6337 63.0933 55.7055 63.0933 53.6307V50.0271H57.1966V53.6307C57.1966 55.7055 57.8518 56.6337 59.326 56.6337V65.5881H44.038V56.6337H44.4202C46.0582 56.6337 46.8226 55.7055 46.8226 53.6853V39.271C46.8226 37.2508 46.0582 36.3226 44.4202 36.3226H44.038V27.3682H59.326V36.3226C57.8518 36.3226 57.1966 37.2508 57.1966 39.3256V42.82H63.0933V39.3256C63.0933 37.2508 62.4381 36.3226 60.964 36.3226V27.3682H76.2519V36.3226H75.8697ZM83.1848 39.271C83.1848 37.2508 82.4204 36.3226 80.7824 36.3226H80.4002V27.3682H96.3433V36.3226H95.9611C94.3232 36.3226 93.5588 37.2508 93.5588 39.271V53.6853C93.5588 55.7055 94.3232 56.6337 95.9611 56.6337H96.3433V65.5881H80.4002V56.6337H80.7824C82.4204 56.6337 83.1848 55.7055 83.1848 53.6853V39.271ZM119.773 47.8431H128.182V65.5881H100.5V56.6337H100.882C102.52 56.6337 103.284 55.7055 103.284 53.6853V39.271C103.284 37.2508 102.52 36.3226 100.882 36.3226H100.5V27.3682H116.825V36.3226H116.224C114.423 36.3226 113.658 37.1962 113.658 39.4894V53.7399C113.658 55.6509 114.368 56.6337 115.788 56.6337C118.245 56.6337 119.773 53.5215 119.773 47.8431ZM135.541 39.271C135.541 37.2508 134.776 36.3226 133.138 36.3226H132.756V27.3682H148.699V36.3226H148.317C146.679 36.3226 145.915 37.2508 145.915 39.271V53.6853C145.915 55.7055 146.679 56.6337 148.317 56.6337H148.699V65.5881H132.756V56.6337H133.138C134.776 56.6337 135.541 55.7055 135.541 53.6853V39.271ZM159.08 26.713C162.684 26.713 164.922 29.2792 164.922 33.3742C164.922 39.271 161.046 43.8574 155.586 44.5125V40.0354C157.333 39.7624 158.425 38.8888 158.753 37.5238C158.534 37.5784 158.316 37.5784 158.043 37.5784C155.149 37.5784 153.238 35.5582 153.238 32.5006C153.238 29.1154 155.64 26.713 159.08 26.713ZM184.238 66.2433C179.652 66.2433 179.324 64.2777 177.795 64.2777C177.031 64.2777 176.376 64.8237 176.321 65.5881H169.824V51.1191H178.232C178.287 54.6135 179.488 56.7429 181.672 56.7429C183.091 56.7429 184.074 55.8147 184.074 54.4497C184.074 49.0443 169.332 51.6651 169.332 38.2336C169.332 31.081 173.482 26.713 179.979 26.713C184.293 26.713 184.839 28.6786 186.367 28.6786C187.132 28.6786 187.732 28.1326 187.732 27.3682H194.284V41.2912H185.876C185.876 38.179 184.675 36.1042 182.6 36.1042C181.235 36.1042 180.307 36.9778 180.307 38.2882C180.307 43.9665 195.704 40.7998 195.704 54.3951C195.704 61.7661 191.227 66.2433 184.238 66.2433Z" fill="#ED1C24"/>
<path d="M32.038 27.3682V26.7891H31.4589V27.3682H32.038ZM39.4636 27.3682H40.0426V26.7891H39.4636V27.3682ZM39.4636 44.0757V44.6548H40.0426V44.0757H39.4636ZM30.127 44.0757L29.548 44.082L29.5541 44.6548H30.127V44.0757ZM30.127 48.2799V47.7009H29.5538L29.548 48.274L30.127 48.2799ZM39.4636 48.2799L40.0423 48.2604L40.0234 47.7009H39.4636V48.2799ZM26.4142 65.6642C21.9809 65.6642 18.3567 63.81 15.8252 60.487C13.282 57.1486 11.8145 52.2882 11.8145 46.2597H10.6564C10.6564 52.4616 12.1647 57.5931 14.904 61.1888C17.655 64.8 21.6202 66.8223 26.4142 66.8223V65.6642ZM11.8145 46.2597C11.8145 40.4109 13.0961 35.6494 15.3249 32.3687C17.5411 29.1065 20.6996 27.2921 24.5578 27.2921V26.134C20.2807 26.134 16.7781 28.1688 14.3669 31.7179C11.9684 35.2485 10.6564 40.2604 10.6564 46.2597H11.8145ZM24.5578 27.2921C26.4608 27.2921 27.4359 27.7483 28.1601 28.1901C28.8589 28.6165 29.5883 29.2577 30.7276 29.2577V28.0995C30.0105 28.0995 29.6752 27.7579 28.7633 27.2015C27.8768 26.6606 26.6952 26.134 24.5578 26.134V27.2921ZM30.7276 29.2577C31.2703 29.2577 31.7559 29.0735 32.1054 28.7134C32.4523 28.356 32.6171 27.8751 32.6171 27.3682H31.4589C31.4589 27.6257 31.378 27.8 31.2744 27.9068C31.1735 28.0107 31.0039 28.0995 30.7276 28.0995V29.2577ZM32.038 27.9473H39.4636V26.7891H32.038V27.9473ZM38.8845 27.3682V44.0757H40.0426V27.3682H38.8845ZM39.4636 43.4967H30.127V44.6548H39.4636V43.4967ZM30.706 44.0695C30.6784 41.4964 30.3339 39.4363 29.67 37.9977C28.9984 36.5427 27.9459 35.6343 26.5234 35.6343V36.7924C27.3396 36.7924 28.0615 37.2763 28.6184 38.4831C29.183 39.7062 29.521 41.5773 29.548 44.082L30.706 44.0695ZM26.5234 35.6343C24.9202 35.6343 23.8106 36.763 23.1294 38.5531C22.4501 40.338 22.1224 42.9337 22.1224 46.2597H23.2805C23.2805 42.9792 23.6079 40.5518 24.2118 38.9651C24.8136 37.3836 25.6151 36.7924 26.5234 36.7924V35.6343ZM22.1224 46.2597C22.1224 49.722 22.4503 52.4214 23.1115 54.2757C23.7675 56.1153 24.8389 57.322 26.4142 57.322V56.1638C25.5871 56.1638 24.8021 55.5687 24.2024 53.8867C23.6078 52.2193 23.2805 49.6771 23.2805 46.2597H22.1224ZM26.4142 57.322C27.8873 57.322 28.9596 56.3024 29.6404 54.7506C30.3201 53.201 30.6784 50.9961 30.706 48.2858L29.548 48.274C29.521 50.9146 29.1695 52.9411 28.5798 54.2853C27.9911 55.6273 27.2344 56.1638 26.4142 56.1638V57.322ZM30.127 48.859H39.4636V47.7009H30.127V48.859ZM38.8848 48.2995C39.0734 53.8762 37.978 58.223 35.8485 61.16C33.7363 64.073 30.5611 65.6642 26.4142 65.6642V66.8223C30.8941 66.8223 34.4346 65.0829 36.7861 61.8398C39.1201 58.6207 40.2359 53.9859 40.0423 48.2604L38.8848 48.2995ZM76.2519 56.6337H76.831V56.0546H76.2519V56.6337ZM76.2519 65.5881V66.1671H76.831V65.5881H76.2519ZM60.964 65.5881H60.3849V66.1671H60.964V65.5881ZM60.964 56.6337V56.0546H60.3849V56.6337H60.964ZM63.0933 50.0271H63.6724V49.4481H63.0933V50.0271ZM57.1966 50.0271V49.4481H56.6175V50.0271H57.1966ZM59.326 56.6337H59.905V56.0546H59.326V56.6337ZM59.326 65.5881V66.1671H59.905V65.5881H59.326ZM44.038 65.5881H43.459V66.1671H44.038V65.5881ZM44.038 56.6337V56.0546H43.459V56.6337H44.038ZM44.038 36.3226H43.459V36.9016H44.038V36.3226ZM44.038 27.3682V26.7891H43.459V27.3682H44.038ZM59.326 27.3682H59.905V26.7891H59.326V27.3682ZM59.326 36.3226V36.9016H59.905V36.3226H59.326ZM57.1966 42.82H56.6175V43.399H57.1966V42.82ZM63.0933 42.82V43.399H63.6724V42.82H63.0933ZM60.964 36.3226H60.3849V36.9016H60.964V36.3226ZM60.964 27.3682V26.7891H60.3849V27.3682H60.964ZM76.2519 27.3682H76.831V26.7891H76.2519V27.3682ZM76.2519 36.3226V36.9016H76.831V36.3226H76.2519ZM75.8697 35.7435C74.9398 35.7435 74.1461 36.0115 73.6058 36.6729C73.0863 37.3089 72.8882 38.2064 72.8882 39.271H74.0464C74.0464 38.3153 74.2306 37.7387 74.5027 37.4055C74.7541 37.0978 75.1616 36.9016 75.8697 36.9016V35.7435ZM72.8882 39.271V53.6853H74.0464V39.271H72.8882ZM72.8882 53.6853C72.8882 54.7499 73.0863 55.6474 73.6058 56.2834C74.1461 56.9448 74.9398 57.2128 75.8697 57.2128V56.0546C75.1616 56.0546 74.7541 55.8585 74.5027 55.5507C74.2306 55.2176 74.0464 54.641 74.0464 53.6853H72.8882ZM75.8697 57.2128H76.2519V56.0546H75.8697V57.2128ZM75.6728 56.6337V65.5881H76.831V56.6337H75.6728ZM76.2519 65.009H60.964V66.1671H76.2519V65.009ZM61.543 65.5881V56.6337H60.3849V65.5881H61.543ZM60.964 57.2128C61.8347 57.2128 62.5694 56.9291 63.054 56.245C63.5071 55.6053 63.6724 54.7062 63.6724 53.6307H62.5143C62.5143 54.6301 62.352 55.2324 62.1089 55.5756C61.8974 55.8742 61.5674 56.0546 60.964 56.0546V57.2128ZM63.6724 53.6307V50.0271H62.5143V53.6307H63.6724ZM63.0933 49.4481H57.1966V50.6062H63.0933V49.4481ZM56.6175 50.0271V53.6307H57.7756V50.0271H56.6175ZM56.6175 53.6307C56.6175 54.7062 56.7828 55.6053 57.2359 56.245C57.7205 56.9291 58.4552 57.2128 59.326 57.2128V56.0546C58.7225 56.0546 58.3925 55.8742 58.181 55.5756C57.9379 55.2324 57.7756 54.6301 57.7756 53.6307H56.6175ZM58.7469 56.6337V65.5881H59.905V56.6337H58.7469ZM59.326 65.009H44.038V66.1671H59.326V65.009ZM44.6171 65.5881V56.6337H43.459V65.5881H44.6171ZM44.038 57.2128H44.4202V56.0546H44.038V57.2128ZM44.4202 57.2128C45.3501 57.2128 46.1438 56.9448 46.6841 56.2834C47.2037 55.6474 47.4017 54.7499 47.4017 53.6853H46.2435C46.2435 54.641 46.0593 55.2176 45.7872 55.5507C45.5358 55.8585 45.1283 56.0546 44.4202 56.0546V57.2128ZM47.4017 53.6853V39.271H46.2435V53.6853H47.4017ZM47.4017 39.271C47.4017 38.2064 47.2037 37.3089 46.6841 36.6729C46.1438 36.0115 45.3501 35.7435 44.4202 35.7435V36.9016C45.1283 36.9016 45.5358 37.0978 45.7872 37.4055C46.0593 37.7387 46.2435 38.3153 46.2435 39.271H47.4017ZM44.4202 35.7435H44.038V36.9016H44.4202V35.7435ZM44.6171 36.3226V27.3682H43.459V36.3226H44.6171ZM44.038 27.9473H59.326V26.7891H44.038V27.9473ZM58.7469 27.3682V36.3226H59.905V27.3682H58.7469ZM59.326 35.7435C58.4552 35.7435 57.7205 36.0272 57.2359 36.7113C56.7828 37.351 56.6175 38.2501 56.6175 39.3256H57.7756C57.7756 38.3262 57.9379 37.7238 58.181 37.3807C58.3925 37.0821 58.7225 36.9016 59.326 36.9016V35.7435ZM56.6175 39.3256V42.82H57.7756V39.3256H56.6175ZM57.1966 43.399H63.0933V42.2409H57.1966V43.399ZM63.6724 42.82V39.3256H62.5143V42.82H63.6724ZM63.6724 39.3256C63.6724 38.2501 63.5071 37.351 63.054 36.7113C62.5694 36.0272 61.8347 35.7435 60.964 35.7435V36.9016C61.5674 36.9016 61.8974 37.0821 62.1089 37.3807C62.352 37.7238 62.5143 38.3262 62.5143 39.3256H63.6724ZM61.543 36.3226V27.3682H60.3849V36.3226H61.543ZM60.964 27.9473H76.2519V26.7891H60.964V27.9473ZM75.6728 27.3682V36.3226H76.831V27.3682H75.6728ZM76.2519 35.7435H75.8697V36.9016H76.2519V35.7435ZM80.4002 36.3226H79.8211V36.9016H80.4002V36.3226ZM80.4002 27.3682V26.7891H79.8211V27.3682H80.4002ZM96.3433 27.3682H96.9224V26.7891H96.3433V27.3682ZM96.3433 36.3226V36.9016H96.9224V36.3226H96.3433ZM96.3433 56.6337H96.9224V56.0546H96.3433V56.6337ZM96.3433 65.5881V66.1671H96.9224V65.5881H96.3433ZM80.4002 65.5881H79.8211V66.1671H80.4002V65.5881ZM80.4002 56.6337V56.0546H79.8211V56.6337H80.4002ZM83.7639 39.271C83.7639 38.2064 83.5658 37.3089 83.0463 36.6729C82.506 36.0115 81.7123 35.7435 80.7824 35.7435V36.9016C81.4905 36.9016 81.898 37.0978 82.1494 37.4055C82.4215 37.7387 82.6057 38.3153 82.6057 39.271H83.7639ZM80.7824 35.7435H80.4002V36.9016H80.7824V35.7435ZM80.9793 36.3226V27.3682H79.8211V36.3226H80.9793ZM80.4002 27.9473H96.3433V26.7891H80.4002V27.9473ZM95.7643 27.3682V36.3226H96.9224V27.3682H95.7643ZM96.3433 35.7435H95.9611V36.9016H96.3433V35.7435ZM95.9611 35.7435C95.0313 35.7435 94.2375 36.0115 93.6973 36.6729C93.1777 37.3089 92.9797 38.2064 92.9797 39.271H94.1378C94.1378 38.3153 94.322 37.7387 94.5942 37.4055C94.8456 37.0978 95.253 36.9016 95.9611 36.9016V35.7435ZM92.9797 39.271V53.6853H94.1378V39.271H92.9797ZM92.9797 53.6853C92.9797 54.7499 93.1777 55.6474 93.6973 56.2834C94.2375 56.9448 95.0313 57.2128 95.9611 57.2128V56.0546C95.253 56.0546 94.8456 55.8585 94.5942 55.5507C94.322 55.2176 94.1378 54.641 94.1378 53.6853H92.9797ZM95.9611 57.2128H96.3433V56.0546H95.9611V57.2128ZM95.7643 56.6337V65.5881H96.9224V56.6337H95.7643ZM96.3433 65.009H80.4002V66.1671H96.3433V65.009ZM80.9793 65.5881V56.6337H79.8211V65.5881H80.9793ZM80.4002 57.2128H80.7824V56.0546H80.4002V57.2128ZM80.7824 57.2128C81.7123 57.2128 82.506 56.9448 83.0463 56.2834C83.5658 55.6474 83.7639 54.7499 83.7639 53.6853H82.6057C82.6057 54.641 82.4215 55.2176 82.1494 55.5507C81.898 55.8585 81.4905 56.0546 80.7824 56.0546V57.2128ZM83.7639 53.6853V39.271H82.6057V53.6853H83.7639ZM119.773 47.8431V47.2641H119.194V47.8431H119.773ZM128.182 47.8431H128.761V47.2641H128.182V47.8431ZM128.182 65.5881V66.1671H128.761V65.5881H128.182ZM100.5 65.5881H99.9207V66.1671H100.5V65.5881ZM100.5 56.6337V56.0546H99.9207V56.6337H100.5ZM100.5 36.3226H99.9207V36.9016H100.5V36.3226ZM100.5 27.3682V26.7891H99.9207V27.3682H100.5ZM116.825 27.3682H117.404V26.7891H116.825V27.3682ZM116.825 36.3226V36.9016H117.404V36.3226H116.825ZM119.773 48.4222H128.182V47.2641H119.773V48.4222ZM127.603 47.8431V65.5881H128.761V47.8431H127.603ZM128.182 65.009H100.5V66.1671H128.182V65.009ZM101.079 65.5881V56.6337H99.9207V65.5881H101.079ZM100.5 57.2128H100.882V56.0546H100.5V57.2128ZM100.882 57.2128C101.812 57.2128 102.606 56.9448 103.146 56.2834C103.665 55.6474 103.863 54.7499 103.863 53.6853H102.705C102.705 54.641 102.521 55.2176 102.249 55.5507C101.998 55.8585 101.59 56.0546 100.882 56.0546V57.2128ZM103.863 53.6853V39.271H102.705V53.6853H103.863ZM103.863 39.271C103.863 38.2064 103.665 37.3089 103.146 36.6729C102.606 36.0115 101.812 35.7435 100.882 35.7435V36.9016C101.59 36.9016 101.998 37.0978 102.249 37.4055C102.521 37.7387 102.705 38.3153 102.705 39.271H103.863ZM100.882 35.7435H100.5V36.9016H100.882V35.7435ZM101.079 36.3226V27.3682H99.9207V36.3226H101.079ZM100.5 27.9473H116.825V26.7891H100.5V27.9473ZM116.246 27.3682V36.3226H117.404V27.3682H116.246ZM116.825 35.7435H116.224V36.9016H116.825V35.7435ZM116.224 35.7435C115.238 35.7435 114.391 35.984 113.819 36.6777C113.271 37.3421 113.079 38.3045 113.079 39.4894H114.237C114.237 38.381 114.428 37.7601 114.713 37.4144C114.973 37.098 115.409 36.9016 116.224 36.9016V35.7435ZM113.079 39.4894V53.7399H114.237V39.4894H113.079ZM113.079 53.7399C113.079 54.7506 113.264 55.6183 113.723 56.2456C114.207 56.9056 114.929 57.2128 115.788 57.2128V56.0546C115.227 56.0546 114.884 55.8704 114.658 55.5613C114.407 55.2194 114.237 54.6402 114.237 53.7399H113.079ZM115.788 57.2128C117.321 57.2128 118.482 56.221 119.227 54.6112C119.967 53.0143 120.353 50.7207 120.353 47.8431H119.194C119.194 50.644 118.815 52.7456 118.177 54.1244C117.544 55.4903 116.712 56.0546 115.788 56.0546V57.2128ZM132.756 36.3226H132.177V36.9016H132.756V36.3226ZM132.756 27.3682V26.7891H132.177V27.3682H132.756ZM148.699 27.3682H149.279V26.7891H148.699V27.3682ZM148.699 36.3226V36.9016H149.279V36.3226H148.699ZM148.699 56.6337H149.279V56.0546H148.699V56.6337ZM148.699 65.5881V66.1671H149.279V65.5881H148.699ZM132.756 65.5881H132.177V66.1671H132.756V65.5881ZM132.756 56.6337V56.0546H132.177V56.6337H132.756ZM136.12 39.271C136.12 38.2064 135.922 37.3089 135.402 36.6729C134.862 36.0115 134.068 35.7435 133.138 35.7435V36.9016C133.847 36.9016 134.254 37.0978 134.505 37.4055C134.778 37.7387 134.962 38.3153 134.962 39.271H136.12ZM133.138 35.7435H132.756V36.9016H133.138V35.7435ZM133.335 36.3226V27.3682H132.177V36.3226H133.335ZM132.756 27.9473H148.699V26.7891H132.756V27.9473ZM148.12 27.3682V36.3226H149.279V27.3682H148.12ZM148.699 35.7435H148.317V36.9016H148.699V35.7435ZM148.317 35.7435C147.387 35.7435 146.594 36.0115 146.053 36.6729C145.534 37.3089 145.336 38.2064 145.336 39.271H146.494C146.494 38.3153 146.678 37.7387 146.95 37.4055C147.202 37.0978 147.609 36.9016 148.317 36.9016V35.7435ZM145.336 39.271V53.6853H146.494V39.271H145.336ZM145.336 53.6853C145.336 54.7499 145.534 55.6474 146.053 56.2834C146.594 56.9448 147.387 57.2128 148.317 57.2128V56.0546C147.609 56.0546 147.202 55.8585 146.95 55.5507C146.678 55.2176 146.494 54.641 146.494 53.6853H145.336ZM148.317 57.2128H148.699V56.0546H148.317V57.2128ZM148.12 56.6337V65.5881H149.279V56.6337H148.12ZM148.699 65.009H132.756V66.1671H148.699V65.009ZM133.335 65.5881V56.6337H132.177V65.5881H133.335ZM132.756 57.2128H133.138V56.0546H132.756V57.2128ZM133.138 57.2128C134.068 57.2128 134.862 56.9448 135.402 56.2834C135.922 55.6474 136.12 54.7499 136.12 53.6853H134.962C134.962 54.641 134.778 55.2176 134.505 55.5507C134.254 55.8585 133.847 56.0546 133.138 56.0546V57.2128ZM136.12 53.6853V39.271H134.962V53.6853H136.12ZM155.586 44.5126H155.007V45.1653L155.655 45.0875L155.586 44.5126ZM155.586 40.0354L155.496 39.4632L155.007 39.5398V40.0354H155.586ZM158.753 37.5238L159.316 37.6589L159.539 36.7304L158.612 36.962L158.753 37.5238ZM159.08 27.2921C160.736 27.2921 162.03 27.8765 162.917 28.8895C163.812 29.9114 164.343 31.4282 164.343 33.3742H165.501C165.501 31.2252 164.914 29.4114 163.788 28.1265C162.655 26.8327 161.028 26.134 159.08 26.134V27.2921ZM164.343 33.3742C164.343 39.006 160.659 43.3206 155.517 43.9376L155.655 45.0875C161.433 44.3941 165.501 39.5359 165.501 33.3742H164.343ZM156.165 44.5126V40.0354H155.007V44.5126H156.165ZM155.675 40.6075C157.583 40.3094 158.918 39.3148 159.316 37.6589L158.19 37.3886C157.932 38.4627 157.083 39.2154 155.496 39.4632L155.675 40.6075ZM158.612 36.962C158.475 36.9962 158.331 36.9993 158.043 36.9993V38.1574C158.301 38.1574 158.593 38.1605 158.893 38.0855L158.612 36.962ZM158.043 36.9993C156.736 36.9993 155.694 36.5467 154.976 35.7881C154.255 35.0265 153.817 33.9084 153.817 32.5006H152.659C152.659 34.1504 153.176 35.5711 154.135 36.5841C155.096 37.6 156.456 38.1574 158.043 38.1574V36.9993ZM153.817 32.5006C153.817 30.9488 154.365 29.6541 155.277 28.7482C156.189 27.8421 157.499 27.2921 159.08 27.2921V26.134C157.222 26.134 155.61 26.7851 154.461 27.9265C153.312 29.0681 152.659 30.6672 152.659 32.5006H153.817ZM176.321 65.5881V66.1671H176.86L176.899 65.6293L176.321 65.5881ZM169.824 65.5881H169.245V66.1671H169.824V65.5881ZM169.824 51.1191V50.5401H169.245V51.1191H169.824ZM178.232 51.1191L178.811 51.1101L178.802 50.5401H178.232V51.1191ZM187.732 27.3682V26.7891H187.153V27.3682H187.732ZM194.284 27.3682H194.863V26.7891H194.284V27.3682ZM194.284 41.2912V41.8702H194.863V41.2912H194.284ZM185.876 41.2912H185.297V41.8702H185.876V41.2912ZM184.238 65.6642C182.042 65.6642 180.915 65.1977 180.161 64.7597C179.965 64.6459 179.789 64.5311 179.615 64.4163C179.446 64.3048 179.269 64.1865 179.093 64.084C178.727 63.872 178.318 63.6986 177.795 63.6986V64.8567C178.037 64.8567 178.242 64.9291 178.511 65.0856C178.652 65.1674 178.797 65.2641 178.977 65.3829C179.152 65.4984 179.352 65.6293 179.579 65.7612C180.518 66.3061 181.847 66.8223 184.238 66.8223V65.6642ZM177.795 63.6986C176.762 63.6986 175.822 64.4456 175.743 65.5468L176.899 65.6293C176.929 65.2018 177.299 64.8567 177.795 64.8567V63.6986ZM176.321 65.009H169.824V66.1671H176.321V65.009ZM170.403 65.5881V51.1191H169.245V65.5881H170.403ZM169.824 51.6982H178.232V50.5401H169.824V51.6982ZM177.653 51.1282C177.681 52.926 178.003 54.4472 178.656 55.5388C179.328 56.6608 180.352 57.322 181.672 57.322V56.1638C180.808 56.1638 180.139 55.7603 179.65 54.944C179.143 54.0974 178.837 52.8066 178.811 51.1101L177.653 51.1282ZM181.672 57.322C182.509 57.322 183.259 57.0465 183.804 56.5277C184.352 56.0065 184.653 55.2769 184.653 54.4497H183.495C183.495 54.9875 183.305 55.4045 183.006 55.6887C182.705 55.9752 182.254 56.1638 181.672 56.1638V57.322ZM184.653 54.4497C184.653 52.7564 183.465 51.7586 182.04 51.0115C181.319 50.6337 180.486 50.2928 179.625 49.9475C178.756 49.5987 177.851 49.2429 176.946 48.8256C175.137 47.9915 173.388 46.9372 172.088 45.3119C170.797 43.699 169.911 41.4762 169.911 38.2336H168.753C168.753 41.7067 169.71 44.1931 171.183 46.0354C172.647 47.8652 174.584 49.012 176.461 49.8773C177.399 50.3098 178.336 50.6782 179.194 51.0224C180.061 51.37 180.841 51.6907 181.502 52.0373C182.84 52.7387 183.495 53.4403 183.495 54.4497H184.653ZM169.911 38.2336C169.911 34.7677 170.915 32.0409 172.643 30.1857C174.366 28.335 176.865 27.2921 179.979 27.2921V26.134C176.596 26.134 173.771 27.275 171.795 29.3964C169.824 31.5134 168.753 34.5469 168.753 38.2336H169.911ZM179.979 27.2921C182.031 27.2921 183.148 27.7551 183.932 28.1995C184.135 28.3148 184.319 28.4307 184.502 28.5463C184.681 28.6592 184.866 28.7764 185.051 28.8783C185.428 29.0868 185.848 29.2577 186.367 29.2577V28.0995C186.122 28.0995 185.901 28.0247 185.611 27.8646C185.462 27.7822 185.307 27.6845 185.121 27.567C184.939 27.4523 184.733 27.3225 184.503 27.1921C183.554 26.6538 182.241 26.134 179.979 26.134V27.2921ZM186.367 29.2577C187.42 29.2577 188.311 28.4832 188.311 27.3682H187.153C187.153 27.7821 186.844 28.0995 186.367 28.0995V29.2577ZM187.732 27.9473H194.284V26.7891H187.732V27.9473ZM193.705 27.3682V41.2912H194.863V27.3682H193.705ZM194.284 40.7121H185.876V41.8702H194.284V40.7121ZM186.455 41.2912C186.455 39.6721 186.144 38.2573 185.509 37.2267C184.859 36.1729 183.866 35.5251 182.6 35.5251V36.6832C183.409 36.6832 184.053 37.0729 184.523 37.8345C185.007 38.6193 185.297 39.7981 185.297 41.2912H186.455ZM182.6 35.5251C181.793 35.5251 181.069 35.785 180.543 36.2848C180.014 36.7872 179.728 37.4906 179.728 38.2882H180.886C180.886 37.7753 181.064 37.3868 181.34 37.1248C181.619 36.8601 182.042 36.6832 182.6 36.6832V35.5251ZM179.728 38.2882C179.728 40.0546 180.962 41.0688 182.456 41.8076C183.209 42.1804 184.079 42.5089 184.979 42.8389C185.889 43.1722 186.834 43.5089 187.781 43.9066C189.674 44.702 191.5 45.7147 192.856 47.3157C194.201 48.9023 195.125 51.116 195.125 54.3951H196.283C196.283 50.8766 195.283 48.3879 193.74 46.5671C192.209 44.7607 190.186 43.6611 188.23 42.8389C187.252 42.4279 186.273 42.0796 185.378 41.7515C184.474 41.4201 183.659 41.1109 182.969 40.7696C181.576 40.0803 180.886 39.3609 180.886 38.2882H179.728ZM195.125 54.3951C195.125 57.9629 194.043 60.768 192.177 62.6787C190.313 64.5881 187.606 65.6642 184.238 65.6642V66.8223C187.858 66.8223 190.885 65.6598 193.006 63.4879C195.126 61.3172 196.283 58.1983 196.283 54.3951H195.125Z" fill="white"/>
</svg>
