<svg width="241" height="70" viewBox="0 0 241 70" fill="none" xmlns="http://www.w3.org/2000/svg">
<path d="M100.11 22.0902C98.0777 22.0902 96.2551 21.6121 94.6415 20.6559C93.028 19.6998 91.7631 18.395 90.8468 16.7416C89.9504 15.0684 89.5022 13.2158 89.5022 11.184C89.5022 9.15212 89.9504 7.30952 90.8468 5.65616C91.7631 3.98288 93.028 2.66815 94.6415 1.71199C96.2551 0.755832 98.0777 0.277752 100.11 0.277752C102.141 0.277752 103.964 0.755832 105.578 1.71199C107.211 2.66815 108.476 3.98288 109.372 5.65616C110.289 7.30952 110.747 9.15212 110.747 11.184C110.747 13.2158 110.289 15.0684 109.372 16.7416C108.476 18.395 107.211 19.6998 105.578 20.6559C103.964 21.6121 102.141 22.0902 100.11 22.0902ZM100.11 17.2496C101.106 17.2496 101.992 16.9906 102.769 16.4727C103.566 15.9349 104.193 15.2078 104.651 14.2915C105.109 13.3552 105.339 12.3194 105.339 11.184C105.339 10.0485 105.109 9.02264 104.651 8.10632C104.193 7.17008 103.566 6.443 102.769 5.92508C101.992 5.38724 101.106 5.11832 100.11 5.11832C99.1335 5.11832 98.2471 5.38724 97.4503 5.92508C96.6535 6.443 96.026 7.17008 95.5678 8.10632C95.1296 9.02264 94.9105 10.0485 94.9105 11.184C94.9105 12.3194 95.1296 13.3552 95.5678 14.2915C96.026 15.2078 96.6535 15.9349 97.4503 16.4727C98.2471 16.9906 99.1335 17.2496 100.11 17.2496ZM121.957 22.0902C120.263 22.0902 118.739 21.7216 117.385 20.9846C116.05 20.2476 115.004 19.2316 114.247 17.9368C113.51 16.6221 113.142 15.1381 113.142 13.4847V0.725952H118.55V13.4847C118.55 14.2018 118.69 14.8492 118.969 15.4269C119.267 16.0046 119.676 16.4528 120.194 16.7715C120.712 17.0703 121.299 17.2197 121.957 17.2197C122.594 17.2197 123.172 17.0604 123.69 16.7416C124.208 16.4229 124.616 15.9847 124.915 15.4269C125.233 14.8492 125.393 14.2018 125.393 13.4847V0.725952H130.771V13.4847C130.771 15.1381 130.393 16.6221 129.636 17.9368C128.899 19.2316 127.863 20.2476 126.528 20.9846C125.194 21.7216 123.67 22.0902 121.957 22.0902ZM134.232 21.642V0.725952H142.867C144.341 0.725952 145.646 1.03471 146.781 1.65223C147.917 2.24983 148.793 3.09643 149.411 4.19203C150.028 5.28764 150.337 6.51272 150.337 7.86728C150.337 9.24176 150.028 10.4768 149.411 11.5724C148.793 12.6481 147.917 13.4947 146.781 14.1122C145.646 14.7098 144.341 15.0086 142.867 15.0086H139.61V21.642H134.232ZM145.317 21.642L141.194 12.7975H146.542L151.144 21.642H145.317ZM142.359 10.5565C142.877 10.5565 143.325 10.4469 143.704 10.2278C144.102 10.0087 144.401 9.69992 144.6 9.30152C144.819 8.8832 144.929 8.40512 144.929 7.86728C144.929 7.32944 144.819 6.86132 144.6 6.46292C144.401 6.06452 144.102 5.75576 143.704 5.53664C143.325 5.2976 142.877 5.17808 142.359 5.17808H139.61V10.5565H142.359Z" fill="#22235B"/>
<path d="M164.025 5.91797L159.079 11.4138L164.025 16.36L168.971 11.4138L164.025 5.91797Z" fill="#ED1C24"/>
<path d="M76.9713 5.91797L72.0251 11.4138L76.9713 16.36L81.9175 11.4138L76.9713 5.91797Z" fill="#ED1C24"/>
<path d="M23.2489 37.2853V51.1965H16.2933C16.2933 47.078 15.0577 44.79 12.9985 44.79C12.4611 44.79 12.0357 44.9487 11.7308 45.2536C11.3607 45.6235 11.1681 46.2087 11.1681 46.9865V50.5101H14.6916V56.7335H11.1681V59.1588C11.1681 61.0808 11.8087 61.813 13.3188 61.813H13.8222V69.3177H0.139771V61.813H0.460095C1.07977 61.813 1.55026 61.6545 1.87999 61.3248C2.28074 60.9242 2.47356 60.2708 2.47356 59.3419V47.2611C2.47356 45.5679 1.83291 44.79 0.460095 44.79H0.139771V37.2853H23.2489Z" fill="#ED1B24"/>
<path d="M49.3689 61.813H49.735V69.3177H36.3729V61.813H36.6474C37.2761 61.813 37.7626 61.6589 38.0828 61.3388C38.3919 61.0298 38.5461 60.5661 38.5236 59.9368H32.8493C32.8035 61.2181 33.49 61.813 34.7255 61.813H35.0001V69.3177H22.8735V61.813H23.2396C23.9134 61.813 24.4014 61.6374 24.7722 61.2668C25.182 60.8571 25.4487 60.2091 25.6649 59.2961L30.7443 37.2853H42.0472L46.9436 59.2961C47.3554 61.035 47.9503 61.813 49.3689 61.813ZM36.0983 44.7443L34.1306 53.8048H37.5626L36.0983 44.7443Z" fill="#ED1B24"/>
<path d="M75.0223 37.2853V44.79H74.6563C73.9824 44.79 73.4945 44.9655 73.1237 45.3362C72.7138 45.7458 72.4472 46.3939 72.2309 47.3068L67.1515 69.3177H55.8487L50.9523 47.3068C50.5404 45.5679 49.9455 44.79 48.527 44.79H48.1609V37.2853H61.523V44.79H61.2484C60.6239 44.79 60.1412 44.9408 59.82 45.2619C59.4117 45.6701 59.2643 46.3537 59.418 47.3526L61.7975 61.8587L64.955 47.3068C65.3211 45.5679 64.5889 44.79 63.1704 44.79H62.8958V37.2853H75.0223Z" fill="#ED1B24"/>
<path d="M97.5154 66.6033C95.4046 68.7148 92.605 69.8668 89.2628 69.8668C81.392 69.8668 76.4956 63.5061 76.4956 53.3015C76.4956 47.4507 78.1052 42.8636 80.9534 40.0143C83.0729 37.894 85.8784 36.7361 89.2171 36.7361C97.0421 36.7361 101.939 43.1426 101.939 53.393C101.939 59.2129 100.347 63.7712 97.5154 66.6033ZM89.2628 62.179C89.8621 62.179 90.3693 61.9747 90.7902 61.5539C91.9121 60.4324 92.4203 57.773 92.4203 53.3472C92.4203 47.1696 91.4136 44.4239 89.2171 44.4239C88.6139 44.4239 88.1004 44.631 87.6729 45.0584C86.5435 46.1873 86.0138 48.8535 86.0138 53.3015C86.0138 59.4334 87.0206 62.179 89.2628 62.179Z" fill="#ED1B24"/>
<path d="M131.512 61.813H131.832V69.3177H125.883C122.268 69.3177 120.713 67.8534 120.713 64.4213V60.2571C120.713 57.603 119.569 56.2302 117.372 56.2302H115.999V59.1588C115.999 61.0808 116.64 61.813 118.15 61.813H118.653V69.3177H104.971V61.813H105.291C105.911 61.813 106.381 61.6545 106.711 61.3248C107.112 60.9242 107.305 60.2708 107.305 59.3419V47.2611C107.305 45.5679 106.664 44.79 105.291 44.79H104.971V37.2853H120.804C126.067 37.2853 129.59 40.8088 129.59 46.0255C129.59 48.447 128.828 50.4388 127.509 51.7586C126.809 52.459 125.952 52.9701 124.968 53.2557C127.897 53.8964 129.499 56.1386 129.499 59.6164V59.3419C129.499 61.035 130.139 61.813 131.512 61.813ZM117.372 50.5558C118.48 50.5558 119.363 50.2379 119.942 49.6589C120.439 49.162 120.713 48.4727 120.713 47.6272C120.713 45.934 119.66 44.79 118.104 44.79C117.471 44.79 116.975 44.9747 116.623 45.3262C116.212 45.7373 115.999 46.3765 115.999 47.2153V50.5558H117.372Z" fill="#ED1B24"/>
<path d="M137.289 47.2611C137.289 45.5679 136.648 44.79 135.275 44.79H134.955V37.2853H148.317V44.79H147.997C147.377 44.79 146.906 44.9485 146.577 45.2782C146.176 45.6788 145.983 46.3322 145.983 47.2611V59.3419C145.983 61.035 146.624 61.813 147.997 61.813H148.317V69.3177H134.955V61.813H135.275C135.895 61.813 136.365 61.6545 136.695 61.3248C137.096 60.9242 137.289 60.2708 137.289 59.3419V47.2611Z" fill="#ED1B24"/>
<path d="M176.511 51.3795H170.654V47.1696C170.654 45.4764 170.333 44.6985 169.556 44.6985C169.358 44.6985 169.183 44.7758 169.042 44.9175C168.79 45.169 168.64 45.6233 168.64 46.2086V59.1588C168.64 61.0808 169.281 61.813 170.791 61.813H171.294V69.3177H157.292V61.813H157.795C158.484 61.813 158.992 61.6604 159.341 61.3118C159.757 60.8967 159.946 60.2035 159.946 59.1588V46.2086C159.946 45.2934 159.58 44.6985 159.031 44.6985C158.786 44.6985 158.586 44.7756 158.428 44.934C158.083 45.2789 157.932 46.0093 157.932 47.1696V51.3795H152.075V37.2853H176.511V51.3795Z" fill="#ED1B24"/>
<path d="M193.124 44.79C192.582 44.79 192.163 44.9396 191.864 45.2388C191.481 45.6219 191.293 46.2502 191.293 47.1238V50.1898H194.908V56.3217H191.293V59.4792C191.293 61.035 191.888 61.813 193.124 61.813C193.846 61.813 194.464 61.55 194.968 61.0466C195.965 60.0502 196.51 58.1121 196.51 55.4065H203.74V69.3177H180.265V61.813H180.585C181.205 61.813 181.675 61.6545 182.005 61.3248C182.406 60.9242 182.599 60.2708 182.599 59.3419V47.2611C182.599 45.5679 181.958 44.79 180.585 44.79H180.265V37.2853H203.74V50.9677H196.51C196.51 47.078 195.274 44.79 193.124 44.79Z" fill="#ED1B24"/>
<path d="M227.176 67.2853C225.509 68.9532 223.131 69.8668 220.241 69.8668C216.397 69.8668 216.123 68.2194 214.841 68.2194C214.492 68.2194 214.169 68.3558 213.941 68.5839C213.751 68.7736 213.627 69.0268 213.606 69.3177H208.16V57.1911H215.207C215.253 60.1198 216.26 61.9045 218.09 61.9045C218.703 61.9045 219.218 61.6985 219.574 61.3426C219.91 61.0069 220.104 60.5378 220.104 59.9825C220.104 55.4522 207.748 57.6487 207.748 46.3916C207.748 43.275 208.688 40.7892 210.356 39.1208C211.897 37.58 214.057 36.7361 216.672 36.7361C220.287 36.7361 220.744 38.3835 222.026 38.3835C222.357 38.3835 222.652 38.2609 222.86 38.0537C223.053 37.8607 223.17 37.5943 223.17 37.2853H228.661V48.9542H221.614C221.614 46.3459 220.607 44.607 218.868 44.607C218.279 44.607 217.787 44.8013 217.448 45.1399C217.129 45.4585 216.946 45.9049 216.946 46.4374C216.946 51.1965 229.851 48.5424 229.851 59.9368C229.851 63.0661 228.888 65.5731 227.176 67.2853Z" fill="#ED1B24"/>
<path d="M238.099 27.8477H232.607L223.17 37.2853H228.661L238.099 27.8477Z" fill="#ED1B24"/>
<path d="M238.099 39.5166V27.8477L228.661 37.2853V48.9543L238.099 39.5166Z" fill="#ED1B24"/>
<path d="M232.607 27.8477C232.607 28.1566 232.49 28.423 232.297 28.6161L222.86 38.0534C223.053 37.8604 223.17 37.5941 223.17 37.2853L232.607 27.8477Z" fill="#ED1B24"/>
<path d="M232.297 28.6159C232.09 28.8231 231.795 28.9457 231.464 28.9457L222.026 38.3834C222.358 38.3834 222.652 38.2607 222.86 38.0535L232.297 28.6159Z" fill="#ED1B24"/>
<path d="M231.463 28.9457C230.182 28.9457 229.724 27.2983 226.109 27.2983L216.672 36.7359C220.287 36.7359 220.744 38.3833 222.026 38.3833L231.463 28.9457Z" fill="#ED1B24"/>
<path d="M231.052 39.5164H238.099L228.661 48.954H221.614L231.052 39.5164Z" fill="#ED1B24"/>
<path d="M226.109 27.2983C223.495 27.2983 221.334 28.1421 219.794 29.6829L210.358 39.1184C211.898 37.579 214.058 36.7359 216.672 36.7359L226.109 27.2983Z" fill="#ED1B24"/>
<path d="M228.306 35.1693C230.045 35.1693 231.052 36.9082 231.052 39.5165L221.614 48.9542C221.614 46.3458 220.607 44.6069 218.868 44.6069L228.306 35.1693Z" fill="#ED1B24"/>
<path d="M226.885 35.7022C227.224 35.3636 227.716 35.1693 228.306 35.1693L218.868 44.6069C218.279 44.6069 217.786 44.8012 217.448 45.1398L226.885 35.7022Z" fill="#ED1B24"/>
<path d="M226.384 36.9997C226.384 36.4675 226.567 36.0213 226.885 35.7027L217.448 45.1399C217.129 45.4585 216.946 45.9049 216.946 46.4373L226.384 36.9997Z" fill="#ED1B24"/>
<path d="M239.289 50.4989C239.289 39.1046 226.384 41.7587 226.384 36.9996L216.946 46.4372C216.946 51.1963 229.851 48.5422 229.851 59.9366L239.289 50.4989Z" fill="#ED1B24"/>
<path d="M219.794 29.6832C218.126 31.3517 217.186 33.8375 217.186 36.954L207.748 46.3917C207.748 43.2751 208.688 40.7893 210.356 39.1208L219.794 29.6832Z" fill="#ED1B24"/>
<path d="M236.614 57.8476C238.325 56.1355 239.288 53.6285 239.288 50.4991L229.851 59.9368C229.851 63.0661 228.888 65.5731 227.176 67.2853L236.614 57.8476Z" fill="#ED1B24"/>
<path d="M217.186 36.9537C217.186 48.2108 229.541 46.0143 229.541 50.5446L220.104 59.9823C220.104 55.452 207.748 57.6485 207.748 46.3914L217.186 36.9537Z" fill="#ED1B24"/>
<path d="M213.178 41.5301V27.8477L203.74 37.2853V50.9677L213.178 41.5301Z" fill="#ED1B24"/>
<path d="M229.541 50.5449C229.541 51.1002 229.347 51.5693 229.011 51.905L219.574 61.3422C219.91 61.0065 220.103 60.5376 220.103 59.9826L229.541 50.5449Z" fill="#ED1B24"/>
<path d="M229.011 51.9052C228.655 52.261 228.14 52.467 227.528 52.467L218.09 61.9047C218.702 61.9047 219.218 61.6987 219.574 61.3428L229.011 51.9052Z" fill="#ED1B24"/>
<path d="M227.528 52.4669C225.697 52.4669 224.691 50.6823 224.645 47.7536L215.207 57.1912C215.253 60.1199 216.26 61.9046 218.09 61.9046L227.528 52.4669Z" fill="#ED1B24"/>
<path d="M229.679 60.4293C232.568 60.4293 234.945 59.5164 236.612 57.8498L227.176 67.2854C225.509 68.9532 223.131 69.8669 220.241 69.8669L229.679 60.4293Z" fill="#ED1B24"/>
<path d="M213.178 27.8477H189.703L180.265 37.2853H203.74L213.178 27.8477Z" fill="#ED1B24"/>
<path d="M224.645 47.7536H217.598L208.16 57.1912H215.207L224.645 47.7536Z" fill="#ED1B24"/>
<path d="M205.948 41.5303H213.178L203.74 50.9679H196.51L205.948 41.5303Z" fill="#ED1B24"/>
<path d="M224.279 58.7816C225.56 58.7816 225.835 60.4289 229.679 60.4289L220.241 69.8666C216.397 69.8666 216.123 68.2192 214.841 68.2192L224.279 58.7816Z" fill="#ED1B24"/>
<path d="M201.301 35.8014C201.601 35.5022 202.019 35.3527 202.561 35.3527L193.123 44.7903C192.582 44.7903 192.163 44.9399 191.864 45.2391L201.301 35.8014Z" fill="#ED1B24"/>
<path d="M202.561 35.3527C204.712 35.3527 205.947 37.6407 205.947 41.5303L196.51 50.968C196.51 47.0783 195.274 44.7903 193.123 44.7903L202.561 35.3527Z" fill="#ED1B24"/>
<path d="M223.379 59.146C223.607 58.9179 223.929 58.7816 224.279 58.7816L214.841 68.2192C214.492 68.2192 214.169 68.3556 213.941 68.5837L223.379 59.146Z" fill="#ED1B24"/>
<path d="M200.731 37.6866C200.731 36.8132 200.918 36.185 201.301 35.8019L191.864 45.2392C191.481 45.6223 191.293 46.2506 191.293 47.1242L200.731 37.6866Z" fill="#ED1B24"/>
<path d="M217.598 47.7536V59.8802L208.16 69.3178V57.1912L217.598 47.7536Z" fill="#ED1B24"/>
<path d="M223.044 59.88C223.064 59.5893 223.189 59.3363 223.378 59.1466L213.941 68.5839C213.751 68.7736 213.627 69.0268 213.606 69.3177L223.044 59.88Z" fill="#ED1B24"/>
<path d="M213.178 45.969H205.948L196.51 55.4066H203.74L213.178 45.969Z" fill="#ED1B24"/>
<path d="M204.346 40.7523H200.731L191.293 50.19H194.908L204.346 40.7523Z" fill="#ED1B24"/>
<path d="M200.731 40.752V37.686L191.293 47.1237V50.1896L200.731 40.752Z" fill="#ED1B24"/>
<path d="M204.346 46.8842V40.7523L194.908 50.19V56.3219L204.346 46.8842Z" fill="#ED1B24"/>
<path d="M217.598 59.8796H223.043L213.606 69.3173H208.16L217.598 59.8796Z" fill="#ED1B24"/>
<path d="M213.178 59.8802V45.969L203.74 55.4066V69.3179L213.178 59.8802Z" fill="#ED1B24"/>
<path d="M189.703 27.8477V35.3524L180.265 44.79V37.2853L189.703 27.8477Z" fill="#ED1B24"/>
<path d="M205.948 45.969C205.948 48.6746 205.402 50.6128 204.406 51.6091L194.969 61.0461C195.965 60.0495 196.51 58.1116 196.51 55.4066L205.948 45.969Z" fill="#ED1B24"/>
<path d="M200.731 46.8842H204.346L194.908 56.3219H191.293L200.731 46.8842Z" fill="#ED1B24"/>
<path d="M189.703 35.3527H190.023L180.585 44.7903H180.265L189.703 35.3527Z" fill="#ED1B24"/>
<path d="M190.023 35.3527C191.396 35.3527 192.036 36.1306 192.036 37.8237L182.599 47.2614C182.599 45.5682 181.958 44.7903 180.585 44.7903L190.023 35.3527Z" fill="#ED1B24"/>
<path d="M200.731 50.0417V46.8842L191.293 56.3219V59.4793L200.731 50.0417Z" fill="#ED1B24"/>
<path d="M204.405 51.6089C203.902 52.1123 203.283 52.3753 202.561 52.3753L193.123 61.8129C193.845 61.8129 194.464 61.55 194.968 61.0465L204.405 51.6089Z" fill="#ED1B24"/>
<path d="M185.949 41.9419V27.8477L176.511 37.2853V51.3796L185.949 41.9419Z" fill="#ED1B24"/>
<path d="M202.561 52.3751C201.326 52.3751 200.731 51.5972 200.731 50.0413L191.293 59.479C191.293 61.0348 191.888 61.8128 193.124 61.8128L202.561 52.3751Z" fill="#ED1B24"/>
<path d="M192.037 37.8232V49.904L182.599 59.3416V47.2608L192.037 37.8232Z" fill="#ED1B24"/>
<path d="M185.949 27.8477H161.513L152.075 37.2853H176.511L185.949 27.8477Z" fill="#ED1B24"/>
<path d="M178.479 35.4802C178.621 35.3385 178.795 35.2612 178.993 35.2612L169.556 44.6988C169.358 44.6988 169.183 44.7761 169.042 44.9179L178.479 35.4802Z" fill="#ED1B24"/>
<path d="M178.993 35.2612C179.771 35.2612 180.091 36.0391 180.091 37.7322L170.654 47.1699C170.654 45.4767 170.334 44.6988 169.556 44.6988L178.993 35.2612Z" fill="#ED1B24"/>
<path d="M178.078 36.7706C178.078 36.1855 178.228 35.7313 178.479 35.4798L169.042 44.9172C168.79 45.1687 168.64 45.6229 168.64 46.2082L178.078 36.7706Z" fill="#ED1B24"/>
<path d="M189.703 59.8796H213.178L203.74 69.3173H180.265L189.703 59.8796Z" fill="#ED1B24"/>
<path d="M180.091 41.9418H185.949L176.511 51.3795H170.654L180.091 41.9418Z" fill="#ED1B24"/>
<path d="M192.036 49.9042C192.036 50.8331 191.843 51.4865 191.443 51.8871L182.005 61.3245C182.406 60.9238 182.598 60.2705 182.598 59.3418L192.036 49.9042Z" fill="#ED1B24"/>
<path d="M180.091 37.7318V41.9417L170.654 51.3794V47.1694L180.091 37.7318Z" fill="#ED1B24"/>
<path d="M191.443 51.8872C191.113 52.2168 190.642 52.3753 190.023 52.3753L180.585 61.813C181.205 61.813 181.675 61.6545 182.005 61.3248L191.443 51.8872Z" fill="#ED1B24"/>
<path d="M190.023 52.3753H189.703L180.265 61.8129H180.585L190.023 52.3753Z" fill="#ED1B24"/>
<path d="M178.078 49.7211V36.7708L168.64 46.2085V59.1587L178.078 49.7211Z" fill="#ED1B24"/>
<path d="M189.703 52.3753V59.88L180.265 69.3177V61.8129L189.703 52.3753Z" fill="#ED1B24"/>
<path d="M168.468 35.2612C169.017 35.2612 169.384 35.8561 169.384 36.7713L159.946 46.2089C159.946 45.2937 159.58 44.6988 159.031 44.6988L168.468 35.2612Z" fill="#ED1B24"/>
<path d="M167.865 35.4967C168.024 35.3382 168.223 35.2612 168.468 35.2612L159.031 44.6988C158.786 44.6988 158.586 44.7759 158.428 44.9343L167.865 35.4967Z" fill="#ED1B24"/>
<path d="M167.37 37.7319C167.37 36.5718 167.52 35.8414 167.865 35.4965L158.428 44.9339C158.083 45.2788 157.932 46.0093 157.932 47.1695L167.37 37.7319Z" fill="#ED1B24"/>
<path d="M180.732 52.3753H180.229L170.791 61.8129H171.294L180.732 52.3753Z" fill="#ED1B24"/>
<path d="M180.229 52.3754C178.719 52.3754 178.078 51.6433 178.078 49.7213L168.64 59.159C168.64 61.0809 169.281 61.8131 170.791 61.8131L180.229 52.3754Z" fill="#ED1B24"/>
<path d="M167.37 41.9418V37.7318L157.932 47.1695V51.3794L167.37 41.9418Z" fill="#ED1B24"/>
<path d="M161.513 27.8477V41.9419L152.075 51.3796V37.2853L161.513 27.8477Z" fill="#ED1B24"/>
<path d="M157.754 35.3524V27.8477L148.317 37.2853V44.79L157.754 35.3524Z" fill="#ED1B24"/>
<path d="M169.383 36.7708V49.7211L159.946 59.1587V46.2085L169.383 36.7708Z" fill="#ED1B24"/>
<path d="M180.732 59.88V52.3753L171.294 61.8129V69.3177L180.732 59.88Z" fill="#ED1B24"/>
<path d="M157.755 27.8477H144.393L134.955 37.2853H148.317L157.755 27.8477Z" fill="#ED1B24"/>
<path d="M161.513 41.9418H167.37L157.932 51.3795H152.075L161.513 41.9418Z" fill="#ED1B24"/>
<path d="M157.434 35.3527H157.754L148.317 44.7903H147.996L157.434 35.3527Z" fill="#ED1B24"/>
<path d="M156.014 35.8408C156.344 35.5112 156.814 35.3527 157.434 35.3527L147.996 44.7903C147.377 44.7903 146.906 44.9488 146.577 45.2784L156.014 35.8408Z" fill="#ED1B24"/>
<path d="M155.421 37.8231C155.421 36.8945 155.613 36.2412 156.014 35.8405L146.577 45.2779C146.176 45.6785 145.983 46.3319 145.983 47.2608L155.421 37.8231Z" fill="#ED1B24"/>
<path d="M169.383 49.7213C169.383 50.766 169.194 51.4591 168.779 51.8743L159.341 61.3115C159.757 60.8963 159.946 60.2033 159.946 59.159L169.383 49.7213Z" fill="#ED1B24"/>
<path d="M168.779 51.8741C168.43 52.2228 167.922 52.3753 167.233 52.3753L157.795 61.8129C158.484 61.8129 158.993 61.6604 159.341 61.3118L168.779 51.8741Z" fill="#ED1B24"/>
<path d="M167.232 52.3753H166.729L157.291 61.8129H157.795L167.232 52.3753Z" fill="#ED1B24"/>
<path d="M166.729 59.8796H180.732L171.294 69.3173H157.291L166.729 59.8796Z" fill="#ED1B24"/>
<path d="M144.393 27.8477V35.3524L134.955 44.79V37.2853L144.393 27.8477Z" fill="#ED1B24"/>
<path d="M155.421 49.904V37.8232L145.983 47.2608V59.3416L155.421 49.904Z" fill="#ED1B24"/>
<path d="M166.729 52.3753V59.88L157.291 69.3177V61.8129L166.729 52.3753Z" fill="#ED1B24"/>
<path d="M144.393 35.3527H144.713L135.275 44.7903H134.955L144.393 35.3527Z" fill="#ED1B24"/>
<path d="M144.713 35.3527C146.086 35.3527 146.726 36.1306 146.726 37.8237L137.289 47.2614C137.289 45.5682 136.648 44.7903 135.275 44.7903L144.713 35.3527Z" fill="#ED1B24"/>
<path d="M157.434 52.3752C156.061 52.3752 155.421 51.5973 155.421 49.9042L145.983 59.3418C145.983 61.035 146.624 61.8129 147.996 61.8129L157.434 52.3752Z" fill="#ED1B24"/>
<path d="M157.754 52.3753H157.434L147.996 61.8129H148.317L157.754 52.3753Z" fill="#ED1B24"/>
<path d="M146.726 37.8232V49.904L137.288 59.3416V47.2608L146.726 37.8232Z" fill="#ED1B24"/>
<path d="M139.028 36.5879C139.028 31.3712 135.504 27.8477 130.242 27.8477L120.804 37.2853C126.067 37.2853 129.59 40.8089 129.59 46.0256L139.028 36.5879Z" fill="#ED1B24"/>
<path d="M157.754 59.88V52.3753L148.317 61.8129V69.3177L157.754 59.88Z" fill="#ED1B24"/>
<path d="M136.947 42.3211C138.266 41.0014 139.028 39.0096 139.028 36.5881L129.59 46.0257C129.59 48.4472 128.828 50.439 127.509 51.7588L136.947 42.3211Z" fill="#ED1B24"/>
<path d="M146.726 49.9042C146.726 50.8331 146.533 51.4865 146.133 51.8871L136.695 61.3245C137.096 60.9238 137.288 60.2705 137.288 59.3418L146.726 49.9042Z" fill="#ED1B24"/>
<path d="M130.241 27.8477H114.408L104.97 37.2853H120.804L130.241 27.8477Z" fill="#ED1B24"/>
<path d="M146.133 51.8872C145.803 52.2168 145.332 52.3753 144.713 52.3753L135.275 61.813C135.895 61.813 136.365 61.6545 136.695 61.3248L146.133 51.8872Z" fill="#ED1B24"/>
<path d="M134.406 43.8183C135.389 43.533 136.245 43.0225 136.945 42.323L127.509 51.7588C126.809 52.4592 125.952 52.9703 124.968 53.2559L134.406 43.8183Z" fill="#ED1B24"/>
<path d="M144.713 52.3753H144.393L134.955 61.8129H135.275L144.713 52.3753Z" fill="#ED1B24"/>
<path d="M127.542 35.3527C129.098 35.3527 130.15 36.4967 130.15 38.1898L120.713 47.6275C120.713 45.9343 119.66 44.7903 118.104 44.7903L127.542 35.3527Z" fill="#ED1B24"/>
<path d="M144.393 59.8796H157.755L148.317 69.3173H134.955L144.393 59.8796Z" fill="#ED1B24"/>
<path d="M126.061 35.8888C126.412 35.5374 126.909 35.3527 127.542 35.3527L118.104 44.7903C117.471 44.7903 116.975 44.975 116.623 45.3265L126.061 35.8888Z" fill="#ED1B24"/>
<path d="M130.15 38.1896C130.15 39.0351 129.877 39.7244 129.38 40.2214L119.943 49.6584C120.439 49.1615 120.713 48.4724 120.713 47.6273L130.15 38.1896Z" fill="#ED1B24"/>
<path d="M138.936 50.1787C138.936 46.7009 137.334 44.4586 134.406 43.8179L124.968 53.2556C127.897 53.8962 129.498 56.1385 129.498 59.6163L138.936 50.1787Z" fill="#ED1B24"/>
<path d="M125.437 37.7776C125.437 36.9391 125.649 36.3 126.06 35.8889L116.623 45.3261C116.212 45.7372 115.999 46.3765 115.999 47.2152L125.437 37.7776Z" fill="#ED1B24"/>
<path d="M138.936 49.9042V50.1787L129.498 59.6164V59.3418L138.936 49.9042Z" fill="#ED1B24"/>
<path d="M140.949 52.3752C139.577 52.3752 138.936 51.5973 138.936 49.9042L129.498 59.3418C129.498 61.035 130.139 61.8129 131.512 61.8129L140.949 52.3752Z" fill="#ED1B24"/>
<path d="M141.27 52.3753H140.95L131.512 61.8129H131.832L141.27 52.3753Z" fill="#ED1B24"/>
<path d="M144.393 52.3753V59.88L134.955 69.3177V61.8129L144.393 52.3753Z" fill="#ED1B24"/>
<path d="M129.38 40.2216C128.8 40.8005 127.918 41.1185 126.81 41.1185L117.372 50.5562C118.48 50.5562 119.363 50.2382 119.942 49.6593L129.38 40.2216Z" fill="#ED1B24"/>
<path d="M125.437 41.1187V37.7781L115.999 47.2158V50.5563L125.437 41.1187Z" fill="#ED1B24"/>
<path d="M141.27 59.88V52.3753L131.832 61.8129V69.3177L141.27 59.88Z" fill="#ED1B24"/>
<path d="M126.81 41.1181H125.437L115.999 50.5557H117.372L126.81 41.1181Z" fill="#ED1B24"/>
<path d="M114.408 27.8477V35.3524L104.97 44.79V37.2853L114.408 27.8477Z" fill="#ED1B24"/>
<path d="M126.81 46.7927C129.006 46.7927 130.15 48.1655 130.15 50.8197L120.713 60.2573C120.713 57.6032 119.569 56.2304 117.372 56.2304L126.81 46.7927Z" fill="#ED1B24"/>
<path d="M125.437 46.7927H126.81L117.372 56.2304H115.999L125.437 46.7927Z" fill="#ED1B24"/>
<path d="M114.408 35.3527H114.729L105.291 44.7903H104.971L114.408 35.3527Z" fill="#ED1B24"/>
<path d="M114.729 35.3527C116.102 35.3527 116.742 36.1306 116.742 37.8237L107.305 47.2614C107.305 45.5682 106.664 44.7903 105.291 44.7903L114.729 35.3527Z" fill="#ED1B24"/>
<path d="M135.321 59.8796H141.27L131.832 69.3173H125.883L135.321 59.8796Z" fill="#ED1B24"/>
<path d="M130.15 50.8194V54.9836L120.712 64.4213V60.257L130.15 50.8194Z" fill="#ED1B24"/>
<path d="M125.437 49.7214V46.7927L115.999 56.2304V59.159L125.437 49.7214Z" fill="#ED1B24"/>
<path d="M127.588 52.3754C126.077 52.3754 125.437 51.6433 125.437 49.7213L115.999 59.159C115.999 61.0809 116.64 61.8131 118.15 61.8131L127.588 52.3754Z" fill="#ED1B24"/>
<path d="M128.091 52.3759H127.588L118.15 61.8136H118.653L128.091 52.3759Z" fill="#ED1B24"/>
<path d="M130.15 54.9838C130.15 58.4158 131.706 59.8802 135.321 59.8802L125.883 69.3178C122.268 69.3178 120.712 67.8535 120.712 64.4214L130.15 54.9838Z" fill="#ED1B24"/>
<path d="M116.742 37.8232V49.904L107.305 59.3416V47.2608L116.742 37.8232Z" fill="#ED1B24"/>
<path d="M128.091 59.88V52.3753L118.653 61.8129V69.3177L128.091 59.88Z" fill="#ED1B24"/>
<path d="M111.376 43.9551C111.376 33.7048 106.48 27.2983 98.6547 27.2983L89.2171 36.7359C97.0422 36.7359 101.939 43.1424 101.939 53.3928L111.376 43.9551Z" fill="#ED1B24"/>
<path d="M98.6549 27.2983C95.3162 27.2983 92.5107 28.4562 90.3912 30.5765L80.9565 40.0112C83.0757 37.8928 85.8801 36.7359 89.2172 36.7359L98.6549 27.2983Z" fill="#ED1B24"/>
<path d="M116.742 49.9042C116.742 50.8331 116.549 51.4865 116.149 51.8871L106.711 61.3245C107.112 60.9238 107.305 60.2705 107.305 59.3418L116.742 49.9042Z" fill="#ED1B24"/>
<path d="M116.149 51.8872C115.819 52.2168 115.349 52.3753 114.729 52.3753L105.291 61.813C105.911 61.813 106.381 61.6545 106.711 61.3248L116.149 51.8872Z" fill="#ED1B24"/>
<path d="M97.1102 35.6207C97.5377 35.1933 98.0512 34.9863 98.6544 34.9863L89.2167 44.4239C88.6135 44.4239 88.1001 44.631 87.6725 45.0584L97.1102 35.6207Z" fill="#ED1B24"/>
<path d="M114.728 52.3753H114.408L104.97 61.8129H105.291L114.728 52.3753Z" fill="#ED1B24"/>
<path d="M114.408 59.8796H128.091L118.653 69.3173H104.97L114.408 59.8796Z" fill="#ED1B24"/>
<path d="M98.6547 34.9863C100.851 34.9863 101.858 37.7319 101.858 43.9096L92.4203 53.3472C92.4203 47.1695 91.4136 44.4239 89.2171 44.4239L98.6547 34.9863Z" fill="#ED1B24"/>
<path d="M106.953 57.166C109.784 54.3339 111.376 49.7756 111.376 43.9557L101.938 53.3934C101.938 59.2132 100.346 63.7715 97.5151 66.6037L106.953 57.166Z" fill="#ED1B24"/>
<path d="M114.408 52.3753V59.88L104.97 69.3177V61.8129L114.408 52.3753Z" fill="#ED1B24"/>
<path d="M95.4516 43.8636C95.4516 39.4165 95.9811 36.7504 97.11 35.6212L87.673 45.0582C86.5437 46.1871 86.0139 48.8533 86.0139 53.3013L95.4516 43.8636Z" fill="#ED1B24"/>
<path d="M101.858 43.9095C101.858 48.3353 101.35 50.9946 100.228 52.1162L90.7906 61.5533C91.9121 60.4314 92.4201 57.7722 92.4201 53.3471L101.858 43.9095Z" fill="#ED1B24"/>
<path d="M84.4597 35.3524V27.8477L75.0221 37.2853V44.79L84.4597 35.3524Z" fill="#ED1B24"/>
<path d="M90.3908 30.5766C87.5426 33.4259 85.9331 38.013 85.9331 43.8638L76.4954 53.3014C76.4954 47.4507 78.105 42.8635 80.9532 40.0142L90.3908 30.5766Z" fill="#ED1B24"/>
<path d="M84.46 27.8477H72.3334L62.8958 37.2853H75.0223L84.46 27.8477Z" fill="#ED1B24"/>
<path d="M84.0938 35.3527H84.4599L75.0223 44.7903H74.6562L84.0938 35.3527Z" fill="#ED1B24"/>
<path d="M98.7006 52.7412C96.4583 52.7412 95.4516 49.9956 95.4516 43.8636L86.0139 53.3013C86.0139 59.4332 87.0207 62.1788 89.263 62.1788L98.7006 52.7412Z" fill="#ED1B24"/>
<path d="M82.5614 35.8988C82.9322 35.5282 83.4202 35.3527 84.094 35.3527L74.6564 44.7903C73.9825 44.7903 73.4946 44.9658 73.1238 45.3365L82.5614 35.8988Z" fill="#ED1B24"/>
<path d="M100.228 52.1162C99.8069 52.537 99.2996 52.7413 98.7004 52.7413L89.2627 62.179C89.862 62.179 90.3692 61.9746 90.7901 61.5539L100.228 52.1162Z" fill="#ED1B24"/>
<path d="M81.6686 37.8693C81.8848 36.9567 82.1513 36.3088 82.5608 35.8991L73.1237 45.3363C72.7139 45.7459 72.4472 46.394 72.231 47.3069L81.6686 37.8693Z" fill="#ED1B24"/>
<path d="M98.7004 60.4291C102.041 60.4291 104.84 59.2781 106.95 57.1683L97.5153 66.6032C95.4045 68.7147 92.6049 69.8667 89.2627 69.8667L98.7004 60.4291Z" fill="#ED1B24"/>
<path d="M72.3334 27.8477V35.3524L62.8958 44.79V37.2853L72.3334 27.8477Z" fill="#ED1B24"/>
<path d="M85.933 43.8636C85.933 54.0683 90.8294 60.429 98.7002 60.429L89.2626 69.8666C81.3918 69.8666 76.4954 63.5059 76.4954 53.3013L85.933 43.8636Z" fill="#ED1B24"/>
<path d="M70.9607 35.3524V27.8477L61.523 37.2853V44.79L70.9607 35.3524Z" fill="#ED1B24"/>
<path d="M72.3334 35.3527H72.608L63.1703 44.7903H62.8958L72.3334 35.3527Z" fill="#ED1B24"/>
<path d="M72.6081 35.3527C74.0267 35.3527 74.7589 36.1306 74.3928 37.8695L64.9551 47.3071C65.3212 45.5682 64.589 44.7903 63.1705 44.7903L72.6081 35.3527Z" fill="#ED1B24"/>
<path d="M70.9605 27.8477H57.5984L48.1608 37.2853H61.5229L70.9605 27.8477Z" fill="#ED1B24"/>
<path d="M70.6861 35.3527H70.9606L61.523 44.7903H61.2484L70.6861 35.3527Z" fill="#ED1B24"/>
<path d="M69.2574 35.8246C69.5786 35.5035 70.0612 35.3527 70.6858 35.3527L61.2481 44.7903C60.6236 44.7903 60.141 44.9411 59.8198 45.2622L69.2574 35.8246Z" fill="#ED1B24"/>
<path d="M68.8556 37.9149C68.702 36.9161 68.8493 36.2327 69.2574 35.8244L59.82 45.2618C59.4117 45.67 59.2643 46.3536 59.418 47.3525L68.8556 37.9149Z" fill="#ED1B24"/>
<path d="M76.5891 59.8797L81.6685 37.8689L72.2309 47.3065L67.1514 69.3174L76.5891 59.8797Z" fill="#ED1B24"/>
<path d="M74.3923 37.8689L71.2349 52.4208L61.7972 61.8584L64.9547 47.3065L74.3923 37.8689Z" fill="#ED1B24"/>
<path d="M57.5984 27.8477V35.3524L48.1608 44.79V37.2853L57.5984 27.8477Z" fill="#ED1B24"/>
<path d="M71.2352 52.4213L68.8557 37.9152L59.418 47.3529L61.7976 61.859L71.2352 52.4213Z" fill="#ED1B24"/>
<path d="M57.9644 35.3527C59.383 35.3527 59.9778 36.1306 60.3897 37.8695L50.952 47.3071C50.5402 45.5682 49.9453 44.7903 48.5267 44.7903L57.9644 35.3527Z" fill="#ED1B24"/>
<path d="M57.5985 35.3527H57.9646L48.5269 44.7903H48.1608L57.5985 35.3527Z" fill="#ED1B24"/>
<path d="M51.4846 27.8477H40.1818L30.7441 37.2853H42.047L51.4846 27.8477Z" fill="#ED1B24"/>
<path d="M56.3809 49.8585L51.4845 27.8477L42.0469 37.2853L46.9433 59.2961L56.3809 49.8585Z" fill="#ED1B24"/>
<path d="M60.3897 37.8689L65.2861 59.8797L55.8484 69.3174L50.952 47.3065L60.3897 37.8689Z" fill="#ED1B24"/>
<path d="M65.2862 59.8796H76.589L67.1514 69.3173H55.8485L65.2862 59.8796Z" fill="#ED1B24"/>
<path d="M59.1726 52.3753H58.8065L49.3688 61.8129H49.7349L59.1726 52.3753Z" fill="#ED1B24"/>
<path d="M58.8065 52.3752C57.3879 52.3752 56.793 51.5973 56.3812 49.8584L46.9435 59.296C47.3554 61.0349 47.9502 61.8129 49.3688 61.8129L58.8065 52.3752Z" fill="#ED1B24"/>
<path d="M45.536 35.3063L47.0003 44.3669L37.5627 53.8045L36.0984 44.7439L45.536 35.3063Z" fill="#ED1B24"/>
<path d="M43.5683 44.3669L45.536 35.3063L36.0984 44.7439L34.1306 53.8045L43.5683 44.3669Z" fill="#ED1B24"/>
<path d="M59.1723 59.88V52.3753L49.7346 61.8129V69.3177L59.1723 59.88Z" fill="#ED1B24"/>
<path d="M47.0003 44.3673H43.5683L34.1306 53.805H37.5627L47.0003 44.3673Z" fill="#ED1B24"/>
<path d="M40.1816 27.8477L35.1022 49.8585L25.6646 59.2961L30.744 37.2853L40.1816 27.8477Z" fill="#ED1B24"/>
<path d="M32.6862 41.7589V27.8477L23.2486 37.2853V51.1965L32.6862 41.7589Z" fill="#ED1B24"/>
<path d="M47.9612 50.4991C47.9836 51.1285 47.8295 51.5922 47.5204 51.9012L38.083 61.3385C38.3919 61.0295 38.546 60.5659 38.5235 59.9368L47.9612 50.4991Z" fill="#ED1B24"/>
<path d="M47.5202 51.9012C47.2 52.2213 46.7135 52.3753 46.0848 52.3753L36.6472 61.813C37.2758 61.813 37.7624 61.6589 38.0826 61.3388L47.5202 51.9012Z" fill="#ED1B24"/>
<path d="M42.2867 50.4991H47.9611L38.5234 59.9368H32.8491L42.2867 50.4991Z" fill="#ED1B24"/>
<path d="M46.0853 52.3753H45.8107L36.373 61.8129H36.6476L46.0853 52.3753Z" fill="#ED1B24"/>
<path d="M32.6865 27.8477H9.57741L0.139771 37.2853H23.2489L32.6865 27.8477Z" fill="#ED1B24"/>
<path d="M45.8107 59.8796H59.1728L49.7351 69.3173H36.373L45.8107 59.8796Z" fill="#ED1B24"/>
<path d="M44.4378 52.3753H44.1632L34.7256 61.8129H35.0001L44.4378 52.3753Z" fill="#ED1B24"/>
<path d="M44.1632 52.3753C42.9277 52.3753 42.2413 51.7804 42.287 50.4991L32.8494 59.9368C32.8036 61.2181 33.49 61.813 34.7256 61.813L44.1632 52.3753Z" fill="#ED1B24"/>
<path d="M45.8107 52.3753V59.88L36.373 69.3177V61.8129L45.8107 52.3753Z" fill="#ED1B24"/>
<path d="M44.4379 59.88V52.3753L35.0003 61.8129V69.3177L44.4379 59.88Z" fill="#ED1B24"/>
<path d="M25.7308 41.7589H32.6864L23.2487 51.1965H16.2931L25.7308 41.7589Z" fill="#ED1B24"/>
<path d="M21.1684 35.8162C21.4733 35.5114 21.8987 35.3527 22.4361 35.3527L12.9985 44.7903C12.461 44.7903 12.0357 44.949 11.7307 45.2538L21.1684 35.8162Z" fill="#ED1B24"/>
<path d="M22.4359 35.3527C24.4952 35.3527 25.7307 37.6407 25.7307 41.7591L16.2931 51.1968C16.2931 47.0783 15.0575 44.7903 12.9983 44.7903L22.4359 35.3527Z" fill="#ED1B24"/>
<path d="M20.6056 37.5488C20.6056 36.7712 20.7981 36.1861 21.1679 35.8161L11.7306 45.2534C11.3605 45.6234 11.1679 46.2086 11.1679 46.9864L20.6056 37.5488Z" fill="#ED1B24"/>
<path d="M35.1026 49.8584C34.8864 50.7713 34.6197 51.4194 34.2099 51.8291L24.7728 61.2662C25.1823 60.8565 25.4488 60.2086 25.665 59.296L35.1026 49.8584Z" fill="#ED1B24"/>
<path d="M34.2096 51.8291C33.8388 52.1997 33.3508 52.3753 32.677 52.3753L23.2393 61.8129C23.9132 61.8129 24.4011 61.6374 24.7719 61.2667L34.2096 51.8291Z" fill="#ED1B24"/>
<path d="M20.6056 41.0724V37.5488L11.1679 46.9865V50.51L20.6056 41.0724Z" fill="#ED1B24"/>
<path d="M24.1292 41.073H20.6056L11.168 50.5106H14.6916L24.1292 41.073Z" fill="#ED1B24"/>
<path d="M32.6772 52.3753H32.3111L22.8734 61.8129H23.2395L32.6772 52.3753Z" fill="#ED1B24"/>
<path d="M24.1294 47.2964V41.073L14.6917 50.5106V56.7341L24.1294 47.2964Z" fill="#ED1B24"/>
<path d="M32.3111 59.8796H44.4376L35 69.3173H22.8734L32.3111 59.8796Z" fill="#ED1B24"/>
<path d="M9.57741 27.8477V35.3524L0.139771 44.79V37.2853L9.57741 27.8477Z" fill="#ED1B24"/>
<path d="M32.3111 52.3753V59.88L22.8734 69.3177V61.8129L32.3111 52.3753Z" fill="#ED1B24"/>
<path d="M20.6056 47.2958H24.1292L14.6916 56.7334H11.168L20.6056 47.2958Z" fill="#ED1B24"/>
<path d="M9.57741 35.3527H9.89774L0.460095 44.7903H0.139771L9.57741 35.3527Z" fill="#ED1B24"/>
<path d="M9.89767 35.3527C11.2705 35.3527 11.9111 36.1306 11.9111 37.8237L2.47349 47.2614C2.47349 45.5682 1.83284 44.7903 0.460022 44.7903L9.89767 35.3527Z" fill="#ED1B24"/>
<path d="M20.6056 49.7211V47.2958L11.168 56.7334V59.1587L20.6056 49.7211Z" fill="#ED1B24"/>
<path d="M23.2596 52.3753H22.7563L13.3186 61.8129H13.822L23.2596 52.3753Z" fill="#ED1B24"/>
<path d="M22.7563 52.3754C21.2462 52.3754 20.6056 51.6433 20.6056 49.7213L11.1679 59.159C11.1679 61.0809 11.8086 61.8131 13.3187 61.8131L22.7563 52.3754Z" fill="#ED1B24"/>
<path d="M11.9111 37.8232V49.904L2.47345 59.3416V47.2608L11.9111 37.8232Z" fill="#ED1B24"/>
<path d="M23.2599 59.88V52.3753L13.8223 61.8129V69.3177L23.2599 59.88Z" fill="#ED1B24"/>
<path d="M11.911 49.9042C11.911 50.8331 11.7182 51.4865 11.3175 51.8871L1.88012 61.3245C2.28067 60.9238 2.47339 60.2705 2.47339 59.3418L11.911 49.9042Z" fill="#ED1B24"/>
<path d="M11.3176 51.8872C10.9878 52.2168 10.5173 52.3753 9.89766 52.3753L0.460022 61.813C1.0797 61.813 1.55019 61.6545 1.87992 61.3248L11.3176 51.8872Z" fill="#ED1B24"/>
<path d="M9.89774 52.3753H9.57741L0.139771 61.8129H0.460095L9.89774 52.3753Z" fill="#ED1B24"/>
<path d="M9.57741 59.8796H23.2598L13.8222 69.3173H0.139771L9.57741 59.8796Z" fill="#ED1B24"/>
<path d="M9.57741 52.3753V59.88L0.139771 69.3177V61.8129L9.57741 52.3753Z" fill="#ED1B24"/>
<mask id="path-208-outside-1_3549_9872" maskUnits="userSpaceOnUse" x="8.65704" y="25.7461" width="232" height="36" fill="black">
<rect fill="white" x="8.65704" y="25.7461" width="232" height="36"/>
<path d="M32.8549 27.7137V41.6249H25.8992C25.8992 37.5064 24.6637 35.2184 22.6045 35.2184C21.4147 35.2184 20.7741 35.9963 20.7741 37.4149V40.9385H24.2976V47.1619H20.7741V49.5872C20.7741 51.5092 21.4147 52.2414 22.9248 52.2414H23.4282V59.7461H9.74575V52.2414H10.0661C11.4389 52.2414 12.0795 51.4634 12.0795 49.7703V37.6895C12.0795 35.9963 11.4389 35.2184 10.0661 35.2184H9.74575V27.7137H32.8549ZM58.9749 52.2414H59.3409V59.7461H45.9788V52.2414H46.2534C47.4889 52.2414 48.1754 51.6465 48.1296 50.3652H42.4553C42.4095 51.6465 43.0959 52.2414 44.3315 52.2414H44.606V59.7461H32.4795V52.2414H32.8456C34.2641 52.2414 34.859 51.4634 35.2709 49.7245L40.3503 27.7137H51.6532L56.5495 49.7245C56.9614 51.4634 57.5563 52.2414 58.9749 52.2414ZM45.7043 35.1727L43.7366 44.2333H47.1686L45.7043 35.1727ZM84.6283 27.7137V35.2184H84.2622C82.8437 35.2184 82.2488 35.9963 81.8369 37.7352L76.7575 59.7461H65.4546L60.5582 37.7352C60.1464 35.9963 59.5515 35.2184 58.1329 35.2184H57.7668V27.7137H71.1289V35.2184H70.8544C69.4358 35.2184 68.7494 35.9963 69.024 37.781L71.4035 52.2871L74.561 37.7352C74.9271 35.9963 74.1949 35.2184 72.7763 35.2184H72.5018V27.7137H84.6283ZM98.8688 60.2952C90.998 60.2952 86.1016 53.9345 86.1016 43.7299C86.1016 33.5253 90.998 27.1645 98.823 27.1645C106.648 27.1645 111.544 33.571 111.544 43.8214C111.544 53.9803 106.694 60.2952 98.8688 60.2952ZM98.8688 52.6074C101.065 52.6074 102.026 49.8618 102.026 43.7756C102.026 37.598 101.02 34.8523 98.823 34.8523C96.6265 34.8523 95.6198 37.598 95.6198 43.7299C95.6198 49.8618 96.6265 52.6074 98.8688 52.6074ZM141.118 52.2414H141.438V59.7461H135.489C131.874 59.7461 130.318 58.2818 130.318 54.8497V50.6855C130.318 48.0314 129.174 46.6586 126.978 46.6586H125.605V49.5872C125.605 51.5092 126.246 52.2414 127.756 52.2414H128.259V59.7461H114.577V52.2414H114.897C116.27 52.2414 116.911 51.4634 116.911 49.7703V37.6895C116.911 35.9963 116.27 35.2184 114.897 35.2184H114.577V27.7137H130.41C135.672 27.7137 139.196 31.2372 139.196 36.4539C139.196 40.1606 137.411 42.8604 134.574 43.6841C137.503 44.3248 139.105 46.567 139.105 50.0448V49.7703C139.105 51.4634 139.745 52.2414 141.118 52.2414ZM126.978 40.9842C129.037 40.9842 130.318 39.886 130.318 38.0556C130.318 36.3624 129.266 35.2184 127.71 35.2184C126.337 35.2184 125.605 36.0879 125.605 37.6437V40.9842H126.978ZM146.895 37.6895C146.895 35.9963 146.254 35.2184 144.881 35.2184H144.561V27.7137H157.923V35.2184H157.603C156.23 35.2184 155.589 35.9963 155.589 37.6895V49.7703C155.589 51.4634 156.23 52.2414 157.603 52.2414H157.923V59.7461H144.561V52.2414H144.881C146.254 52.2414 146.895 51.4634 146.895 49.7703V37.6895ZM186.117 41.8079H180.26V37.598C180.26 35.9048 179.939 35.1269 179.161 35.1269C178.612 35.1269 178.246 35.7218 178.246 36.637V49.5872C178.246 51.5092 178.887 52.2414 180.397 52.2414H180.9V59.7461H166.898V52.2414H167.401C168.911 52.2414 169.552 51.5092 169.552 49.5872V36.637C169.552 35.7218 169.186 35.1269 168.637 35.1269C167.859 35.1269 167.538 35.9048 167.538 37.598V41.8079H161.681V27.7137H186.117V41.8079ZM202.73 35.2184C201.494 35.2184 200.899 35.9963 200.899 37.5522V40.6182H204.514V46.7501H200.899V49.9076C200.899 51.4634 201.494 52.2414 202.73 52.2414C204.88 52.2414 206.116 49.9076 206.116 45.8349H213.346V59.7461H189.871V52.2414H190.191C191.564 52.2414 192.205 51.4634 192.205 49.7703V37.6895C192.205 35.9963 191.564 35.2184 190.191 35.2184H189.871V27.7137H213.346V41.3961H206.116C206.116 37.5064 204.88 35.2184 202.73 35.2184ZM229.847 60.2952C226.003 60.2952 225.729 58.6478 224.447 58.6478C223.807 58.6478 223.258 59.1054 223.212 59.7461H217.766V47.6195H224.813C224.859 50.5482 225.866 52.3329 227.696 52.3329C228.886 52.3329 229.71 51.5549 229.71 50.4109C229.71 45.8806 217.354 48.0771 217.354 36.82C217.354 30.8254 220.832 27.1645 226.278 27.1645C229.893 27.1645 230.35 28.8119 231.632 28.8119C232.272 28.8119 232.776 28.3543 232.776 27.7137H238.267V39.3826H231.22C231.22 36.7743 230.213 35.0354 228.474 35.0354C227.33 35.0354 226.552 35.7675 226.552 36.8658C226.552 41.6249 239.457 38.9708 239.457 50.3652C239.457 56.5429 235.704 60.2952 229.847 60.2952Z"/>
</mask>
<path d="M32.8549 27.7137V41.6249H25.8992C25.8992 37.5064 24.6637 35.2184 22.6045 35.2184C21.4147 35.2184 20.7741 35.9963 20.7741 37.4149V40.9385H24.2976V47.1619H20.7741V49.5872C20.7741 51.5092 21.4147 52.2414 22.9248 52.2414H23.4282V59.7461H9.74575V52.2414H10.0661C11.4389 52.2414 12.0795 51.4634 12.0795 49.7703V37.6895C12.0795 35.9963 11.4389 35.2184 10.0661 35.2184H9.74575V27.7137H32.8549ZM58.9749 52.2414H59.3409V59.7461H45.9788V52.2414H46.2534C47.4889 52.2414 48.1754 51.6465 48.1296 50.3652H42.4553C42.4095 51.6465 43.0959 52.2414 44.3315 52.2414H44.606V59.7461H32.4795V52.2414H32.8456C34.2641 52.2414 34.859 51.4634 35.2709 49.7245L40.3503 27.7137H51.6532L56.5495 49.7245C56.9614 51.4634 57.5563 52.2414 58.9749 52.2414ZM45.7043 35.1727L43.7366 44.2333H47.1686L45.7043 35.1727ZM84.6283 27.7137V35.2184H84.2622C82.8437 35.2184 82.2488 35.9963 81.8369 37.7352L76.7575 59.7461H65.4546L60.5582 37.7352C60.1464 35.9963 59.5515 35.2184 58.1329 35.2184H57.7668V27.7137H71.1289V35.2184H70.8544C69.4358 35.2184 68.7494 35.9963 69.024 37.781L71.4035 52.2871L74.561 37.7352C74.9271 35.9963 74.1949 35.2184 72.7763 35.2184H72.5018V27.7137H84.6283ZM98.8688 60.2952C90.998 60.2952 86.1016 53.9345 86.1016 43.7299C86.1016 33.5253 90.998 27.1645 98.823 27.1645C106.648 27.1645 111.544 33.571 111.544 43.8214C111.544 53.9803 106.694 60.2952 98.8688 60.2952ZM98.8688 52.6074C101.065 52.6074 102.026 49.8618 102.026 43.7756C102.026 37.598 101.02 34.8523 98.823 34.8523C96.6265 34.8523 95.6198 37.598 95.6198 43.7299C95.6198 49.8618 96.6265 52.6074 98.8688 52.6074ZM141.118 52.2414H141.438V59.7461H135.489C131.874 59.7461 130.318 58.2818 130.318 54.8497V50.6855C130.318 48.0314 129.174 46.6586 126.978 46.6586H125.605V49.5872C125.605 51.5092 126.246 52.2414 127.756 52.2414H128.259V59.7461H114.577V52.2414H114.897C116.27 52.2414 116.911 51.4634 116.911 49.7703V37.6895C116.911 35.9963 116.27 35.2184 114.897 35.2184H114.577V27.7137H130.41C135.672 27.7137 139.196 31.2372 139.196 36.4539C139.196 40.1606 137.411 42.8604 134.574 43.6841C137.503 44.3248 139.105 46.567 139.105 50.0448V49.7703C139.105 51.4634 139.745 52.2414 141.118 52.2414ZM126.978 40.9842C129.037 40.9842 130.318 39.886 130.318 38.0556C130.318 36.3624 129.266 35.2184 127.71 35.2184C126.337 35.2184 125.605 36.0879 125.605 37.6437V40.9842H126.978ZM146.895 37.6895C146.895 35.9963 146.254 35.2184 144.881 35.2184H144.561V27.7137H157.923V35.2184H157.603C156.23 35.2184 155.589 35.9963 155.589 37.6895V49.7703C155.589 51.4634 156.23 52.2414 157.603 52.2414H157.923V59.7461H144.561V52.2414H144.881C146.254 52.2414 146.895 51.4634 146.895 49.7703V37.6895ZM186.117 41.8079H180.26V37.598C180.26 35.9048 179.939 35.1269 179.161 35.1269C178.612 35.1269 178.246 35.7218 178.246 36.637V49.5872C178.246 51.5092 178.887 52.2414 180.397 52.2414H180.9V59.7461H166.898V52.2414H167.401C168.911 52.2414 169.552 51.5092 169.552 49.5872V36.637C169.552 35.7218 169.186 35.1269 168.637 35.1269C167.859 35.1269 167.538 35.9048 167.538 37.598V41.8079H161.681V27.7137H186.117V41.8079ZM202.73 35.2184C201.494 35.2184 200.899 35.9963 200.899 37.5522V40.6182H204.514V46.7501H200.899V49.9076C200.899 51.4634 201.494 52.2414 202.73 52.2414C204.88 52.2414 206.116 49.9076 206.116 45.8349H213.346V59.7461H189.871V52.2414H190.191C191.564 52.2414 192.205 51.4634 192.205 49.7703V37.6895C192.205 35.9963 191.564 35.2184 190.191 35.2184H189.871V27.7137H213.346V41.3961H206.116C206.116 37.5064 204.88 35.2184 202.73 35.2184ZM229.847 60.2952C226.003 60.2952 225.729 58.6478 224.447 58.6478C223.807 58.6478 223.258 59.1054 223.212 59.7461H217.766V47.6195H224.813C224.859 50.5482 225.866 52.3329 227.696 52.3329C228.886 52.3329 229.71 51.5549 229.71 50.4109C229.71 45.8806 217.354 48.0771 217.354 36.82C217.354 30.8254 220.832 27.1645 226.278 27.1645C229.893 27.1645 230.35 28.8119 231.632 28.8119C232.272 28.8119 232.776 28.3543 232.776 27.7137H238.267V39.3826H231.22C231.22 36.7743 230.213 35.0354 228.474 35.0354C227.33 35.0354 226.552 35.7675 226.552 36.8658C226.552 41.6249 239.457 38.9708 239.457 50.3652C239.457 56.5429 235.704 60.2952 229.847 60.2952Z" fill="#22235B"/>
<path d="M32.8549 27.7137H33.8082V26.7603H32.8549V27.7137ZM32.8549 41.6249V42.5782H33.8082V41.6249H32.8549ZM25.8992 41.6249H24.9459V42.5782H25.8992V41.6249ZM20.7741 40.9385H19.8207V41.8918H20.7741V40.9385ZM24.2976 40.9385H25.251V39.9851H24.2976V40.9385ZM24.2976 47.1619V48.1153H25.251V47.1619H24.2976ZM20.7741 47.1619V46.2086H19.8207V47.1619H20.7741ZM23.4282 52.2414H24.3815V51.288H23.4282V52.2414ZM23.4282 59.7461V60.6994H24.3815V59.7461H23.4282ZM9.74575 59.7461H8.7924V60.6994H9.74575V59.7461ZM9.74575 52.2414V51.288H8.7924V52.2414H9.74575ZM9.74575 35.2184H8.7924V36.1718H9.74575V35.2184ZM9.74575 27.7137V26.7603H8.7924V27.7137H9.74575ZM31.9015 27.7137V41.6249H33.8082V27.7137H31.9015ZM32.8549 40.6716H25.8992V42.5782H32.8549V40.6716ZM26.8526 41.6249C26.8526 39.4936 26.5366 37.7169 25.8695 36.4367C25.1802 35.1138 24.0706 34.2651 22.6045 34.2651V36.1718C23.1976 36.1718 23.7353 36.4671 24.1786 37.3178C24.6441 38.2112 24.9459 39.6377 24.9459 41.6249H26.8526ZM22.6045 34.2651C21.7888 34.2651 21.0363 34.5417 20.5098 35.1755C20.0073 35.7804 19.8207 36.5797 19.8207 37.4149H21.7274C21.7274 36.8316 21.8611 36.5326 21.9764 36.3939C22.0676 36.2841 22.2304 36.1718 22.6045 36.1718V34.2651ZM19.8207 37.4149V40.9385H21.7274V37.4149H19.8207ZM20.7741 41.8918H24.2976V39.9851H20.7741V41.8918ZM23.3443 40.9385V47.1619H25.251V40.9385H23.3443ZM24.2976 46.2086H20.7741V48.1153H24.2976V46.2086ZM19.8207 47.1619V49.5872H21.7274V47.1619H19.8207ZM19.8207 49.5872C19.8207 50.6112 19.9824 51.5559 20.5475 52.2414C21.1525 52.9753 22.0288 53.1947 22.9248 53.1947V51.288C22.3108 51.288 22.1116 51.1413 22.0188 51.0286C21.8861 50.8676 21.7274 50.4852 21.7274 49.5872H19.8207ZM22.9248 53.1947H23.4282V51.288H22.9248V53.1947ZM22.4748 52.2414V59.7461H24.3815V52.2414H22.4748ZM23.4282 58.7927H9.74575V60.6994H23.4282V58.7927ZM10.6991 59.7461V52.2414H8.7924V59.7461H10.6991ZM9.74575 53.1947H10.0661V51.288H9.74575V53.1947ZM10.0661 53.1947C10.935 53.1947 11.7564 52.9411 12.3259 52.2439C12.8614 51.5884 13.0329 50.7065 13.0329 49.7703H11.1262C11.1262 50.5272 10.9774 50.8808 10.8493 51.0376C10.7553 51.1527 10.57 51.288 10.0661 51.288V53.1947ZM13.0329 49.7703V37.6895H11.1262V49.7703H13.0329ZM13.0329 37.6895C13.0329 36.7533 12.8614 35.8713 12.3259 35.2159C11.7564 34.5187 10.935 34.2651 10.0661 34.2651V36.1718C10.57 36.1718 10.7553 36.3071 10.8493 36.4221C10.9774 36.579 11.1262 36.9325 11.1262 37.6895H13.0329ZM10.0661 34.2651H9.74575V36.1718H10.0661V34.2651ZM10.6991 35.2184V27.7137H8.7924V35.2184H10.6991ZM9.74575 28.667H32.8549V26.7603H9.74575V28.667ZM59.3409 52.2414H60.2943V51.288H59.3409V52.2414ZM59.3409 59.7461V60.6994H60.2943V59.7461H59.3409ZM45.9788 59.7461H45.0255V60.6994H45.9788V59.7461ZM45.9788 52.2414V51.288H45.0255V52.2414H45.9788ZM48.1296 50.3652L49.0823 50.3311L49.0495 49.4118H48.1296V50.3652ZM42.4553 50.3652V49.4118H41.5354L41.5025 50.3311L42.4553 50.3652ZM44.606 52.2414H45.5594V51.288H44.606V52.2414ZM44.606 59.7461V60.6994H45.5594V59.7461H44.606ZM32.4795 59.7461H31.5261V60.6994H32.4795V59.7461ZM32.4795 52.2414V51.288H31.5261V52.2414H32.4795ZM35.2709 49.7245L36.1986 49.9442L36.1998 49.9389L35.2709 49.7245ZM40.3503 27.7137V26.7603H39.5919L39.4214 27.4993L40.3503 27.7137ZM51.6532 27.7137L52.5838 27.5067L52.4177 26.7603H51.6532V27.7137ZM56.5495 49.7245L55.6189 49.9316L55.6219 49.9442L56.5495 49.7245ZM45.7043 35.1727L46.6454 35.0206L44.7727 34.9703L45.7043 35.1727ZM43.7366 44.2332L42.805 44.0309L42.554 45.1866H43.7366V44.2332ZM47.1686 44.2332V45.1866H48.2884L48.1098 44.0811L47.1686 44.2332ZM58.9749 53.1947H59.3409V51.288H58.9749V53.1947ZM58.3876 52.2414V59.7461H60.2943V52.2414H58.3876ZM59.3409 58.7927H45.9788V60.6994H59.3409V58.7927ZM46.9322 59.7461V52.2414H45.0255V59.7461H46.9322ZM45.9788 53.1947H46.2534V51.288H45.9788V53.1947ZM46.2534 53.1947C47.0065 53.1947 47.769 53.0146 48.3337 52.47C48.9115 51.9129 49.1113 51.1411 49.0823 50.3311L47.1769 50.3992C47.1937 50.8705 47.0731 51.0369 47.0102 51.0975C46.9343 51.1707 46.7359 51.288 46.2534 51.288V53.1947ZM48.1296 49.4118H42.4553V51.3185H48.1296V49.4118ZM41.5025 50.3311C41.4736 51.1411 41.6734 51.9129 42.2511 52.47C42.8159 53.0146 43.5784 53.1947 44.3315 53.1947V51.288C43.849 51.288 43.6506 51.1707 43.5746 51.0975C43.5118 51.0369 43.3912 50.8705 43.408 50.3992L41.5025 50.3311ZM44.3315 53.1947H44.606V51.288H44.3315V53.1947ZM43.6527 52.2414V59.7461H45.5594V52.2414H43.6527ZM44.606 58.7927H32.4795V60.6994H44.606V58.7927ZM33.4328 59.7461V52.2414H31.5261V59.7461H33.4328ZM32.4795 53.1947H32.8456V51.288H32.4795V53.1947ZM32.8456 53.1947C33.7501 53.1947 34.5369 52.9355 35.1385 52.2792C35.6878 51.68 35.9842 50.8494 36.1985 49.9442L34.3432 49.5048C34.1457 50.3386 33.9387 50.7664 33.733 50.9908C33.5795 51.1583 33.3596 51.288 32.8456 51.288V53.1947ZM36.1998 49.9389L41.2792 27.928L39.4214 27.4993L34.3419 49.5102L36.1998 49.9389ZM40.3503 28.667H51.6532V26.7603H40.3503V28.667ZM50.7226 27.9207L55.6189 49.9315L57.4801 49.5175L52.5838 27.5067L50.7226 27.9207ZM55.6219 49.9442C55.8362 50.8494 56.1326 51.68 56.6819 52.2792C57.2835 52.9355 58.0703 53.1947 58.9749 53.1947V51.288C58.4609 51.288 58.2409 51.1583 58.0874 50.9908C57.8817 50.7664 57.6747 50.3386 57.4772 49.5048L55.6219 49.9442ZM44.7727 34.9703L42.805 44.0309L44.6682 44.4356L46.6359 35.375L44.7727 34.9703ZM43.7366 45.1866H47.1686V43.2799H43.7366V45.1866ZM48.1098 44.0811L46.6454 35.0206L44.7631 35.3248L46.2275 44.3854L48.1098 44.0811ZM84.6283 27.7137H85.5817V26.7603H84.6283V27.7137ZM84.6283 35.2184V36.1718H85.5817V35.2184H84.6283ZM81.8369 37.7352L80.9092 37.5155L80.908 37.5209L81.8369 37.7352ZM76.7575 59.7461V60.6994H77.5159L77.6864 59.9605L76.7575 59.7461ZM65.4546 59.7461L64.524 59.9531L64.6901 60.6994H65.4546V59.7461ZM60.5582 37.7352L61.4889 37.5282L61.4859 37.5155L60.5582 37.7352ZM57.7668 35.2184H56.8135V36.1718H57.7668V35.2184ZM57.7668 27.7137V26.7603H56.8135V27.7137H57.7668ZM71.1289 27.7137H72.0823V26.7603H71.1289V27.7137ZM71.1289 35.2184V36.1718H72.0823V35.2184H71.1289ZM69.024 37.781L68.0816 37.926L68.0832 37.9353L69.024 37.781ZM71.4035 52.2871L70.4627 52.4414L72.3352 52.4893L71.4035 52.2871ZM74.561 37.7352L75.4927 37.9374L75.4939 37.9316L74.561 37.7352ZM72.5018 35.2184H71.5484V36.1718H72.5018V35.2184ZM72.5018 27.7137V26.7603H71.5484V27.7137H72.5018ZM83.675 27.7137V35.2184H85.5817V27.7137H83.675ZM84.6283 34.2651H84.2622V36.1718H84.6283V34.2651ZM84.2622 34.2651C83.3577 34.2651 82.5709 34.5243 81.9693 35.1805C81.42 35.7798 81.1236 36.6104 80.9092 37.5155L82.7646 37.955C82.9621 37.1212 83.1691 36.6934 83.3748 36.4689C83.5283 36.3015 83.7482 36.1718 84.2622 36.1718V34.2651ZM80.908 37.5209L75.8286 59.5317L77.6864 59.9605L82.7659 37.9496L80.908 37.5209ZM76.7575 58.7927H65.4546V60.6994H76.7575V58.7927ZM66.3852 59.5391L61.4888 37.5282L59.6276 37.9423L64.524 59.9531L66.3852 59.5391ZM61.4859 37.5155C61.2716 36.6104 60.9752 35.7798 60.4259 35.1805C59.8243 34.5243 59.0375 34.2651 58.1329 34.2651V36.1718C58.6469 36.1718 58.8669 36.3015 59.0204 36.4689C59.2261 36.6934 59.4331 37.1212 59.6306 37.955L61.4859 37.5155ZM58.1329 34.2651H57.7668V36.1718H58.1329V34.2651ZM58.7202 35.2184V27.7137H56.8135V35.2184H58.7202ZM57.7668 28.667H71.1289V26.7603H57.7668V28.667ZM70.1756 27.7137V35.2184H72.0823V27.7137H70.1756ZM71.1289 34.2651H70.8544V36.1718H71.1289V34.2651ZM70.8544 34.2651C69.9884 34.2651 69.1089 34.5055 68.5428 35.2568C68.0006 35.9764 67.9287 36.9312 68.0817 37.926L69.9662 37.636C69.8447 36.8461 69.9786 36.5197 70.0657 36.4041C70.1288 36.3203 70.3018 36.1718 70.8544 36.1718V34.2651ZM68.0832 37.9353L70.4627 52.4414L72.3443 52.1328L69.9647 37.6267L68.0832 37.9353ZM72.3352 52.4893L75.4927 37.9374L73.6293 37.5331L70.4718 52.085L72.3352 52.4893ZM75.4939 37.9316C75.7025 36.9408 75.6535 35.9765 75.0955 35.246C74.5269 34.5016 73.6356 34.2651 72.7763 34.2651V36.1718C73.3356 36.1718 73.5197 36.3242 73.5803 36.4035C73.6515 36.4966 73.7856 36.7908 73.6281 37.5388L75.4939 37.9316ZM72.7763 34.2651H72.5018V36.1718H72.7763V34.2651ZM73.4551 35.2184V27.7137H71.5484V35.2184H73.4551ZM72.5018 28.667H84.6283V26.7603H72.5018V28.667ZM98.8688 59.3419C95.2184 59.3419 92.3099 57.8806 90.2888 55.2574C88.2467 52.607 87.0549 48.6925 87.0549 43.7299H85.1483C85.1483 48.9719 86.4046 53.3401 88.7784 56.4211C91.1733 59.5295 94.6484 61.2486 98.8688 61.2486V59.3419ZM87.0549 43.7299C87.0549 38.7673 88.2467 34.8523 90.2838 32.2014C92.3 29.5777 95.1974 28.1179 98.823 28.1179V26.2112C94.6236 26.2112 91.1603 27.9317 88.772 31.0396C86.4046 34.1202 85.1483 38.4878 85.1483 43.7299H87.0549ZM98.823 28.1179C102.446 28.1179 105.343 29.587 107.361 32.2278C109.399 34.8962 110.591 38.8351 110.591 43.8214H112.498C112.498 38.5573 111.242 34.1678 108.876 31.0704C106.489 27.9453 103.025 26.2112 98.823 26.2112V28.1179ZM110.591 43.8214C110.591 48.7621 109.41 52.6537 107.385 55.2867C105.382 57.8919 102.497 59.3419 98.8688 59.3419V61.2486C103.066 61.2486 106.519 59.5411 108.897 56.4491C111.253 53.3849 112.498 49.0396 112.498 43.8214H110.591ZM98.8688 53.5608C99.6374 53.5608 100.337 53.3126 100.92 52.7978C101.481 52.3018 101.88 51.6067 102.169 50.7934C102.742 49.1837 102.98 46.8375 102.98 43.7756H101.073C101.073 46.7999 100.83 48.8696 100.373 50.1543C100.148 50.7882 99.8941 51.1599 99.6576 51.3689C99.4423 51.5591 99.1984 51.6541 98.8688 51.6541V53.5608ZM102.98 43.7756C102.98 40.666 102.73 38.296 102.145 36.6738C101.849 35.8542 101.444 35.1575 100.879 34.6613C100.293 34.1469 99.5914 33.899 98.823 33.899V35.8057C99.1529 35.8057 99.4009 35.9009 99.6213 36.0944C99.8626 36.3061 100.121 36.6819 100.352 37.3209C100.819 38.616 101.073 40.7076 101.073 43.7756H102.98ZM98.823 33.899C98.0547 33.899 97.3536 34.1469 96.7677 34.66C96.2025 35.1551 95.7973 35.8501 95.5014 36.667C94.9158 38.2837 94.6665 40.6426 94.6665 43.7299H96.5731C96.5731 40.6852 96.8272 38.6053 97.2941 37.3163C97.5245 36.6803 97.7827 36.3057 98.024 36.0943C98.2447 35.901 98.4931 35.8057 98.823 35.8057V33.899ZM94.6665 43.7299C94.6665 46.8164 94.9156 49.1773 95.5082 50.7959C95.808 51.6145 96.2191 52.3101 96.7927 52.8047C97.3862 53.3164 98.0943 53.5608 98.8688 53.5608V51.6541C98.5222 51.6541 98.2636 51.5553 98.0377 51.3606C97.7919 51.1487 97.5309 50.7746 97.2987 50.1404C96.8274 48.8532 96.5731 46.7753 96.5731 43.7299H94.6665ZM141.438 52.2414H142.392V51.288H141.438V52.2414ZM141.438 59.7461V60.6994H142.392V59.7461H141.438ZM125.605 46.6586V45.7052H124.652V46.6586H125.605ZM128.259 52.2414H129.213V51.288H128.259V52.2414ZM128.259 59.7461V60.6994H129.213V59.7461H128.259ZM114.577 59.7461H113.623V60.6994H114.577V59.7461ZM114.577 52.2414V51.288H113.623V52.2414H114.577ZM114.577 35.2184H113.623V36.1718H114.577V35.2184ZM114.577 27.7137V26.7603H113.623V27.7137H114.577ZM134.574 43.6841L134.308 42.7686L134.37 44.6154L134.574 43.6841ZM125.605 40.9842H124.652V41.9376H125.605V40.9842ZM141.118 53.1947H141.438V51.288H141.118V53.1947ZM140.485 52.2414V59.7461H142.392V52.2414H140.485ZM141.438 58.7927H135.489V60.6994H141.438V58.7927ZM135.489 58.7927C133.781 58.7927 132.784 58.4416 132.203 57.8922C131.635 57.3546 131.272 56.443 131.272 54.8497H129.365C129.365 56.6885 129.78 58.2251 130.893 59.2776C131.994 60.3185 133.583 60.6994 135.489 60.6994V58.7927ZM131.272 54.8497V50.6855H129.365V54.8497H131.272ZM131.272 50.6855C131.272 49.2423 130.964 47.9808 130.205 47.0676C129.421 46.1228 128.285 45.7052 126.978 45.7052V47.6119C127.868 47.6119 128.402 47.8807 128.739 48.2858C129.101 48.7226 129.365 49.4746 129.365 50.6855H131.272ZM126.978 45.7052H125.605V47.6119H126.978V45.7052ZM124.652 46.6586V49.5872H126.558V46.6586H124.652ZM124.652 49.5872C124.652 50.6112 124.813 51.5559 125.379 52.2414C125.984 52.9753 126.86 53.1947 127.756 53.1947V51.288C127.142 51.288 126.943 51.1413 126.85 51.0286C126.717 50.8676 126.558 50.4852 126.558 49.5872H124.652ZM127.756 53.1947H128.259V51.288H127.756V53.1947ZM127.306 52.2414V59.7461H129.213V52.2414H127.306ZM128.259 58.7927H114.577V60.6994H128.259V58.7927ZM115.53 59.7461V52.2414H113.623V59.7461H115.53ZM114.577 53.1947H114.897V51.288H114.577V53.1947ZM114.897 53.1947C115.766 53.1947 116.587 52.9411 117.157 52.2439C117.692 51.5884 117.864 50.7065 117.864 49.7703H115.957C115.957 50.5272 115.808 50.8808 115.68 51.0376C115.586 51.1527 115.401 51.288 114.897 51.288V53.1947ZM117.864 49.7703V37.6895H115.957V49.7703H117.864ZM117.864 37.6895C117.864 36.7533 117.692 35.8713 117.157 35.2159C116.587 34.5187 115.766 34.2651 114.897 34.2651V36.1718C115.401 36.1718 115.586 36.3071 115.68 36.4221C115.808 36.579 115.957 36.9325 115.957 37.6895H117.864ZM114.897 34.2651H114.577V36.1718H114.897V34.2651ZM115.53 35.2184V27.7137H113.623V35.2184H115.53ZM114.577 28.667H130.41V26.7603H114.577V28.667ZM130.41 28.667C132.824 28.667 134.767 29.471 136.104 30.8029C137.44 32.1346 138.243 34.0655 138.243 36.4539H140.149C140.149 33.6257 139.19 31.1864 137.449 29.4522C135.709 27.7181 133.259 26.7603 130.41 26.7603V28.667ZM138.243 36.4539C138.243 39.8548 136.635 42.0932 134.308 42.7686L134.84 44.5997C138.188 43.6277 140.149 40.4663 140.149 36.4539H138.243ZM134.37 44.6154C135.632 44.8913 136.548 45.4934 137.161 46.3539C137.784 47.2269 138.151 48.4474 138.151 50.0448H140.058C140.058 48.1645 139.625 46.525 138.714 45.2472C137.794 43.957 136.445 43.1176 134.778 42.7528L134.37 44.6154ZM140.058 50.0448V49.7703H138.151V50.0448H140.058ZM138.151 49.7703C138.151 50.7065 138.323 51.5884 138.858 52.2439C139.428 52.9411 140.249 53.1947 141.118 53.1947V51.288C140.614 51.288 140.429 51.1527 140.335 51.0376C140.207 50.8808 140.058 50.5272 140.058 49.7703H138.151ZM126.978 41.9376C128.169 41.9376 129.25 41.6195 130.047 40.9251C130.86 40.2165 131.272 39.2073 131.272 38.0556H129.365C129.365 38.7343 129.136 39.1894 128.794 39.4875C128.436 39.7999 127.846 40.0309 126.978 40.0309V41.9376ZM131.272 38.0556C131.272 37.0119 130.945 36.059 130.3 35.3568C129.648 34.6477 128.734 34.2651 127.71 34.2651V36.1718C128.243 36.1718 128.633 36.3611 128.896 36.6474C129.165 36.9404 129.365 37.406 129.365 38.0556H131.272ZM127.71 34.2651C126.813 34.2651 125.996 34.5574 125.42 35.2255C124.865 35.8704 124.652 36.7317 124.652 37.6437H126.558C126.558 36.9999 126.711 36.6485 126.865 36.4697C126.999 36.3141 127.234 36.1718 127.71 36.1718V34.2651ZM124.652 37.6437V40.9842H126.558V37.6437H124.652ZM125.605 41.9376H126.978V40.0309H125.605V41.9376ZM144.561 35.2184H143.607V36.1718H144.561V35.2184ZM144.561 27.7137V26.7603H143.607V27.7137H144.561ZM157.923 27.7137H158.876V26.7603H157.923V27.7137ZM157.923 35.2184V36.1718H158.876V35.2184H157.923ZM157.923 52.2414H158.876V51.288H157.923V52.2414ZM157.923 59.7461V60.6994H158.876V59.7461H157.923ZM144.561 59.7461H143.607V60.6994H144.561V59.7461ZM144.561 52.2414V51.288H143.607V52.2414H144.561ZM147.848 37.6895C147.848 36.7533 147.676 35.8713 147.141 35.2159C146.571 34.5187 145.75 34.2651 144.881 34.2651V36.1718C145.385 36.1718 145.57 36.3071 145.664 36.4221C145.792 36.579 145.941 36.9325 145.941 37.6895H147.848ZM144.881 34.2651H144.561V36.1718H144.881V34.2651ZM145.514 35.2184V27.7137H143.607V35.2184H145.514ZM144.561 28.667H157.923V26.7603H144.561V28.667ZM156.97 27.7137V35.2184H158.876V27.7137H156.97ZM157.923 34.2651H157.603V36.1718H157.923V34.2651ZM157.603 34.2651C156.734 34.2651 155.912 34.5187 155.343 35.2159C154.807 35.8713 154.636 36.7533 154.636 37.6895H156.542C156.542 36.9325 156.691 36.579 156.819 36.4221C156.913 36.3071 157.099 36.1718 157.603 36.1718V34.2651ZM154.636 37.6895V49.7703H156.542V37.6895H154.636ZM154.636 49.7703C154.636 50.7065 154.807 51.5884 155.343 52.2439C155.912 52.9411 156.734 53.1947 157.603 53.1947V51.288C157.099 51.288 156.913 51.1527 156.819 51.0376C156.691 50.8808 156.542 50.5272 156.542 49.7703H154.636ZM157.603 53.1947H157.923V51.288H157.603V53.1947ZM156.97 52.2414V59.7461H158.876V52.2414H156.97ZM157.923 58.7927H144.561V60.6994H157.923V58.7927ZM145.514 59.7461V52.2414H143.607V59.7461H145.514ZM144.561 53.1947H144.881V51.288H144.561V53.1947ZM144.881 53.1947C145.75 53.1947 146.571 52.9411 147.141 52.2439C147.676 51.5884 147.848 50.7065 147.848 49.7703H145.941C145.941 50.5272 145.792 50.8808 145.664 51.0376C145.57 51.1527 145.385 51.288 144.881 51.288V53.1947ZM147.848 49.7703V37.6895H145.941V49.7703H147.848ZM186.117 41.8079V42.7613H187.07V41.8079H186.117ZM180.26 41.8079H179.306V42.7613H180.26V41.8079ZM180.9 52.2414H181.854V51.288H180.9V52.2414ZM180.9 59.7461V60.6994H181.854V59.7461H180.9ZM166.898 59.7461H165.944V60.6994H166.898V59.7461ZM166.898 52.2414V51.288H165.944V52.2414H166.898ZM167.538 41.8079V42.7613H168.492V41.8079H167.538ZM161.681 41.8079H160.728V42.7613H161.681V41.8079ZM161.681 27.7137V26.7603H160.728V27.7137H161.681ZM186.117 27.7137H187.07V26.7603H186.117V27.7137ZM186.117 40.8546H180.26V42.7613H186.117V40.8546ZM181.213 41.8079V37.598H179.306V41.8079H181.213ZM181.213 37.598C181.213 36.7279 181.136 35.9426 180.876 35.346C180.739 35.0311 180.531 34.7239 180.215 34.4986C179.89 34.2673 179.523 34.1735 179.161 34.1735V36.0802C179.189 36.0802 179.154 36.0837 179.108 36.0512C179.071 36.0246 179.089 36.0177 179.129 36.109C179.223 36.3247 179.306 36.7748 179.306 37.598H181.213ZM179.161 34.1735C178.486 34.1735 177.978 34.5592 177.684 35.043C177.404 35.5021 177.293 36.0685 177.293 36.637H179.2C179.2 36.2902 179.271 36.1016 179.312 36.0344C179.33 36.0059 179.329 36.0196 179.294 36.0414C179.254 36.0664 179.204 36.0802 179.161 36.0802V34.1735ZM177.293 36.637V49.5872H179.2V36.637H177.293ZM177.293 49.5872C177.293 50.6112 177.455 51.5559 178.02 52.2414C178.625 52.9753 179.501 53.1947 180.397 53.1947V51.288C179.783 51.288 179.584 51.1413 179.491 51.0286C179.358 50.8676 179.2 50.4852 179.2 49.5872H177.293ZM180.397 53.1947H180.9V51.288H180.397V53.1947ZM179.947 52.2414V59.7461H181.854V52.2414H179.947ZM180.9 58.7927H166.898V60.6994H180.9V58.7927ZM167.851 59.7461V52.2414H165.944V59.7461H167.851ZM166.898 53.1947H167.401V51.288H166.898V53.1947ZM167.401 53.1947C168.297 53.1947 169.173 52.9753 169.778 52.2414C170.343 51.5559 170.505 50.6112 170.505 49.5872H168.598C168.598 50.4852 168.44 50.8676 168.307 51.0286C168.214 51.1413 168.015 51.288 167.401 51.288V53.1947ZM170.505 49.5872V36.637H168.598V49.5872H170.505ZM170.505 36.637C170.505 36.0685 170.394 35.5021 170.114 35.043C169.82 34.5592 169.312 34.1735 168.637 34.1735V36.0802C168.594 36.0802 168.544 36.0664 168.504 36.0414C168.469 36.0196 168.468 36.0059 168.486 36.0344C168.527 36.1016 168.598 36.2902 168.598 36.637H170.505ZM168.637 34.1735C168.275 34.1735 167.908 34.2673 167.583 34.4986C167.267 34.7239 167.059 35.0311 166.922 35.346C166.662 35.9426 166.585 36.7279 166.585 37.598H168.492C168.492 36.7748 168.575 36.3247 168.669 36.109C168.709 36.0177 168.727 36.0246 168.69 36.0512C168.645 36.0837 168.609 36.0802 168.637 36.0802V34.1735ZM166.585 37.598V41.8079H168.492V37.598H166.585ZM167.538 40.8546H161.681V42.7613H167.538V40.8546ZM162.634 41.8079V27.7137H160.728V41.8079H162.634ZM161.681 28.667H186.117V26.7603H161.681V28.667ZM185.164 27.7137V41.8079H187.07V27.7137H185.164ZM200.899 40.6182H199.946V41.5715H200.899V40.6182ZM204.514 40.6182H205.468V39.6648H204.514V40.6182ZM204.514 46.7501V47.7034H205.468V46.7501H204.514ZM200.899 46.7501V45.7967H199.946V46.7501H200.899ZM206.116 45.8349V44.8815H205.163V45.8349H206.116ZM213.346 45.8349H214.299V44.8815H213.346V45.8349ZM213.346 59.7461V60.6994H214.299V59.7461H213.346ZM189.871 59.7461H188.918V60.6994H189.871V59.7461ZM189.871 52.2414V51.288H188.918V52.2414H189.871ZM189.871 35.2184H188.918V36.1718H189.871V35.2184ZM189.871 27.7137V26.7603H188.918V27.7137H189.871ZM213.346 27.7137H214.299V26.7603H213.346V27.7137ZM213.346 41.3961V42.3494H214.299V41.3961H213.346ZM206.116 41.3961H205.163V42.3494H206.116V41.3961ZM202.73 34.2651C201.898 34.2651 201.127 34.5385 200.599 35.2158C200.108 35.8464 199.946 36.6804 199.946 37.5522H201.853C201.853 36.8681 201.988 36.5353 202.103 36.3879C202.181 36.2872 202.326 36.1718 202.73 36.1718V34.2651ZM199.946 37.5522V40.6182H201.853V37.5522H199.946ZM200.899 41.5715H204.514V39.6648H200.899V41.5715ZM203.561 40.6182V46.7501H205.468V40.6182H203.561ZM204.514 45.7967H200.899V47.7034H204.514V45.7967ZM199.946 46.7501V49.9076H201.853V46.7501H199.946ZM199.946 49.9076C199.946 50.7793 200.108 51.6134 200.599 52.244C201.127 52.9212 201.898 53.1947 202.73 53.1947V51.288C202.326 51.288 202.181 51.1725 202.103 51.0718C201.988 50.9245 201.853 50.5917 201.853 49.9076H199.946ZM202.73 53.1947C204.232 53.1947 205.367 52.3452 206.072 51.011C206.753 49.7231 207.069 47.944 207.069 45.8349H205.163C205.163 47.7984 204.861 49.2225 204.387 50.1197C203.937 50.9706 203.378 51.288 202.73 51.288V53.1947ZM206.116 46.7882H213.346V44.8815H206.116V46.7882ZM212.393 45.8349V59.7461H214.299V45.8349H212.393ZM213.346 58.7927H189.871V60.6994H213.346V58.7927ZM190.824 59.7461V52.2414H188.918V59.7461H190.824ZM189.871 53.1947H190.191V51.288H189.871V53.1947ZM190.191 53.1947C191.06 53.1947 191.882 52.9411 192.451 52.2439C192.987 51.5884 193.158 50.7065 193.158 49.7703H191.251C191.251 50.5272 191.103 50.8808 190.974 51.0376C190.88 51.1527 190.695 51.288 190.191 51.288V53.1947ZM193.158 49.7703V37.6895H191.251V49.7703H193.158ZM193.158 37.6895C193.158 36.7533 192.987 35.8713 192.451 35.2159C191.882 34.5187 191.06 34.2651 190.191 34.2651V36.1718C190.695 36.1718 190.88 36.3071 190.974 36.4221C191.103 36.579 191.251 36.9325 191.251 37.6895H193.158ZM190.191 34.2651H189.871V36.1718H190.191V34.2651ZM190.824 35.2184V27.7137H188.918V35.2184H190.824ZM189.871 28.667H213.346V26.7603H189.871V28.667ZM212.393 27.7137V41.3961H214.299V27.7137H212.393ZM213.346 40.4427H206.116V42.3494H213.346V40.4427ZM207.069 41.3961C207.069 39.3732 206.752 37.6476 206.066 36.3918C205.355 35.0902 204.22 34.2651 202.73 34.2651V36.1718C203.39 36.1718 203.948 36.4906 204.393 37.3055C204.862 38.1661 205.163 39.5293 205.163 41.3961H207.069ZM223.212 59.7461V60.6994H224.099L224.163 59.814L223.212 59.7461ZM217.766 59.7461H216.813V60.6994H217.766V59.7461ZM217.766 47.6195V46.6662H216.813V47.6195H217.766ZM224.813 47.6195L225.767 47.6046L225.752 46.6662H224.813V47.6195ZM232.776 27.7137V26.7603H231.822V27.7137H232.776ZM238.267 27.7137H239.22V26.7603H238.267V27.7137ZM238.267 39.3826V40.336H239.22V39.3826H238.267ZM231.22 39.3826H230.267V40.336H231.22V39.3826ZM229.847 59.3419C228.086 59.3419 227.223 58.9709 226.665 58.6471C226.513 58.559 226.376 58.4693 226.231 58.3735C226.093 58.2828 225.932 58.1749 225.77 58.0808C225.425 57.8806 224.999 57.6945 224.447 57.6945V59.6012C224.536 59.6012 224.625 59.621 224.812 59.7297C224.916 59.79 225.025 59.8623 225.18 59.9647C225.327 60.0619 225.505 60.1781 225.708 60.296C226.568 60.7958 227.764 61.2486 229.847 61.2486V59.3419ZM224.447 57.6945C223.364 57.6945 222.346 58.4829 222.261 59.6782L224.163 59.814C224.167 59.758 224.19 59.7131 224.233 59.6753C224.28 59.6344 224.354 59.6012 224.447 59.6012V57.6945ZM223.212 58.7927H217.766V60.6994H223.212V58.7927ZM218.72 59.7461V47.6195H216.813V59.7461H218.72ZM217.766 48.5729H224.813V46.6662H217.766V48.5729ZM223.86 47.6344C223.884 49.1822 224.161 50.5502 224.768 51.5641C225.404 52.628 226.406 53.2862 227.696 53.2862V51.3795C227.156 51.3795 226.739 51.1454 226.404 50.5848C226.038 49.9743 225.788 48.9856 225.767 47.6046L223.86 47.6344ZM227.696 53.2862C228.501 53.2862 229.251 53.0203 229.806 52.4915C230.366 51.959 230.663 51.2212 230.663 50.4109H228.756C228.756 50.7447 228.642 50.9679 228.492 51.1103C228.338 51.2565 228.081 51.3795 227.696 51.3795V53.2862ZM230.663 50.4109C230.663 48.7154 229.452 47.7594 228.222 47.1148C227.594 46.7855 226.875 46.4916 226.155 46.2032C225.422 45.909 224.676 45.6159 223.931 45.2723C222.443 44.5858 221.053 43.7396 220.029 42.4601C219.022 41.201 218.308 39.4446 218.308 36.82H216.401C216.401 39.8241 217.231 42.0145 218.541 43.6512C219.834 45.2674 221.533 46.2659 223.133 47.0038C223.932 47.3724 224.731 47.6862 225.446 47.9728C226.174 48.2651 226.807 48.5257 227.337 48.8036C228.423 49.373 228.756 49.8414 228.756 50.4109H230.663ZM218.308 36.82C218.308 34.0045 219.122 31.843 220.472 30.394C221.814 28.9524 223.777 28.1179 226.278 28.1179V26.2112C223.333 26.2112 220.834 27.2071 219.076 29.0946C217.326 30.9747 216.401 33.6409 216.401 36.82H218.308ZM226.278 28.1179C227.912 28.1179 228.77 28.483 229.36 28.8176C229.519 28.908 229.665 28.9996 229.819 29.0969C229.966 29.1896 230.133 29.2957 230.302 29.389C230.654 29.5832 231.086 29.7653 231.632 29.7653V27.8586C231.537 27.8586 231.432 27.8347 231.224 27.72C231.113 27.6589 230.996 27.5848 230.837 27.4845C230.685 27.3887 230.504 27.2744 230.3 27.1589C229.437 26.6698 228.258 26.2112 226.278 26.2112V28.1179ZM231.632 29.7653C232.747 29.7653 233.729 28.9314 233.729 27.7137H231.822C231.822 27.7475 231.816 27.7678 231.811 27.7789C231.806 27.7904 231.799 27.8005 231.789 27.8099C231.771 27.8275 231.723 27.8586 231.632 27.8586V29.7653ZM232.776 28.667H238.267V26.7603H232.776V28.667ZM237.314 27.7137V39.3826H239.22V27.7137H237.314ZM238.267 38.4293H231.22V40.336H238.267V38.4293ZM232.173 39.3826C232.173 37.9747 231.904 36.6936 231.311 35.7305C230.693 34.7293 229.72 34.082 228.474 34.082V35.9887C228.967 35.9887 229.367 36.2109 229.688 36.7312C230.032 37.2896 230.267 38.1822 230.267 39.3826H232.173ZM228.474 34.082C227.698 34.082 226.969 34.3334 226.428 34.8473C225.882 35.3654 225.599 36.0823 225.599 36.8658H227.506C227.506 36.551 227.612 36.3527 227.741 36.2302C227.874 36.1034 228.107 35.9887 228.474 35.9887V34.082ZM225.599 36.8658C225.599 38.6266 226.854 39.5958 228.146 40.235C228.803 40.5601 229.554 40.8433 230.307 41.1192C231.075 41.4007 231.855 41.6781 232.635 42.0062C234.196 42.6619 235.647 43.4756 236.713 44.7344C237.76 45.9694 238.503 47.7136 238.503 50.3652H240.41C240.41 47.3195 239.541 45.1226 238.168 43.5019C236.815 41.905 235.039 40.9483 233.374 40.2483C232.541 39.8985 231.708 39.6018 230.963 39.329C230.204 39.0506 229.544 38.7994 228.991 38.526C227.864 37.9682 227.506 37.4845 227.506 36.8658H225.599ZM238.503 50.3652C238.503 53.2602 237.628 55.4844 236.166 56.9807C234.707 58.4749 232.568 59.3419 229.847 59.3419V61.2486C232.983 61.2486 235.649 60.2393 237.531 58.3129C239.41 56.3886 240.41 53.6478 240.41 50.3652H238.503Z" fill="white" mask="url(#path-208-outside-1_3549_9872)"/>
</svg>
